<?xml version="1.0" encoding="utf-8" ?>
<svg baseProfile="full" height="6.0cm" version="1.1" width="17.534983742cm" xmlns="http://www.w3.org/2000/svg" xmlns:ev="http://www.w3.org/2001/xml-events" xmlns:xlink="http://www.w3.org/1999/xlink"><defs /><g font-size="12"><text x="16.534983742cm" y="5.0cm">37.8°</text><text x="0.0cm" y="5.0cm">37.8°</text><text x="16.534983742cm" y="3.47975077882cm">50.0°</text><text x="0.0cm" y="3.47975077882cm">50.0°</text><text x="16.534983742cm" y="2.23364485981cm">60.0°</text><text x="0.0cm" y="2.23364485981cm">60.0°</text><text x="16.534983742cm" y="1.0cm">69.9°</text><text x="0.0cm" y="1.0cm">69.9°</text></g><g id="vertical" stroke="black"><line x1="8.767491871cm" x2="8.767491871cm" y1="1.0cm" y2="1.08cm" /><line x1="8.767491871cm" x2="8.767491871cm" y1="1.08cm" y2="1.16cm" /><line x1="8.767491871cm" x2="8.767491871cm" y1="1.16cm" y2="1.24cm" /><line x1="8.767491871cm" x2="8.767491871cm" y1="1.24cm" y2="1.32cm" /><line x1="8.767491871cm" x2="8.767491871cm" y1="1.32cm" y2="1.4cm" /><line x1="8.767491871cm" x2="8.767491871cm" y1="1.4cm" y2="1.48cm" /><line x1="8.767491871cm" x2="8.767491871cm" y1="1.48cm" y2="1.56cm" /><line x1="8.767491871cm" x2="8.767491871cm" y1="1.56cm" y2="1.64cm" /><line x1="8.767491871cm" x2="8.767491871cm" y1="1.64cm" y2="1.72cm" /><line x1="8.767491871cm" x2="8.767491871cm" y1="1.72cm" y2="1.8cm" /><line x1="8.767491871cm" x2="8.767491871cm" y1="1.8cm" y2="1.88cm" /><line x1="8.767491871cm" x2="8.767491871cm" y1="1.88cm" y2="1.96cm" /><line x1="8.767491871cm" x2="8.767491871cm" y1="1.96cm" y2="2.04cm" /><line x1="8.767491871cm" x2="8.767491871cm" y1="2.04cm" y2="2.12cm" /><line x1="8.767491871cm" x2="8.767491871cm" y1="2.12cm" y2="2.2cm" /><line x1="8.767491871cm" x2="8.767491871cm" y1="2.2cm" y2="2.28cm" /><line x1="8.767491871cm" x2="8.767491871cm" y1="2.28cm" y2="2.36cm" /><line x1="8.767491871cm" x2="8.767491871cm" y1="2.36cm" y2="2.44cm" /><line x1="8.767491871cm" x2="8.767491871cm" y1="2.44cm" y2="2.52cm" /><line x1="8.767491871cm" x2="8.767491871cm" y1="2.52cm" y2="2.6cm" /><line x1="8.767491871cm" x2="8.767491871cm" y1="2.6cm" y2="2.68cm" /><line x1="8.767491871cm" x2="8.767491871cm" y1="2.68cm" y2="2.76cm" /><line x1="8.767491871cm" x2="8.767491871cm" y1="2.76cm" y2="2.84cm" /><line x1="8.767491871cm" x2="8.767491871cm" y1="2.84cm" y2="2.92cm" /><line x1="8.767491871cm" x2="8.767491871cm" y1="2.92cm" y2="3.0cm" /><line x1="8.767491871cm" x2="8.767491871cm" y1="3.0cm" y2="3.08cm" /><line x1="8.767491871cm" x2="8.767491871cm" y1="3.08cm" y2="3.16cm" /><line x1="8.767491871cm" x2="8.767491871cm" y1="3.16cm" y2="3.24cm" /><line x1="8.767491871cm" x2="8.767491871cm" y1="3.24cm" y2="3.32cm" /><line x1="8.767491871cm" x2="8.767491871cm" y1="3.32cm" y2="3.4cm" /><line x1="8.767491871cm" x2="8.767491871cm" y1="3.4cm" y2="3.48cm" /><line x1="8.767491871cm" x2="8.767491871cm" y1="3.48cm" y2="3.56cm" /><line x1="8.767491871cm" x2="8.767491871cm" y1="3.56cm" y2="3.64cm" /><line x1="8.767491871cm" x2="8.767491871cm" y1="3.64cm" y2="3.72cm" /><line x1="8.767491871cm" x2="8.767491871cm" y1="3.72cm" y2="3.8cm" /><line x1="8.767491871cm" x2="8.767491871cm" y1="3.8cm" y2="3.88cm" /><line x1="8.767491871cm" x2="8.767491871cm" y1="3.88cm" y2="3.96cm" /><line x1="8.767491871cm" x2="8.767491871cm" y1="3.96cm" y2="4.04cm" /><line x1="8.767491871cm" x2="8.767491871cm" y1="4.04cm" y2="4.12cm" /><line x1="8.767491871cm" x2="8.767491871cm" y1="4.12cm" y2="4.2cm" /><line x1="8.767491871cm" x2="8.767491871cm" y1="4.2cm" y2="4.28cm" /><line x1="8.767491871cm" x2="8.767491871cm" y1="4.28cm" y2="4.36cm" /><line x1="8.767491871cm" x2="8.767491871cm" y1="4.36cm" y2="4.44cm" /><line x1="8.767491871cm" x2="8.767491871cm" y1="4.44cm" y2="4.52cm" /><line x1="8.767491871cm" x2="8.767491871cm" y1="4.52cm" y2="4.6cm" /><line x1="8.767491871cm" x2="8.767491871cm" y1="4.6cm" y2="4.68cm" /><line x1="8.767491871cm" x2="8.767491871cm" y1="4.68cm" y2="4.76cm" /><line x1="8.767491871cm" x2="8.767491871cm" y1="4.76cm" y2="4.84cm" /><line x1="8.767491871cm" x2="8.767491871cm" y1="4.84cm" y2="4.92cm" /><line x1="8.767491871cm" x2="8.767491871cm" y1="4.92cm" y2="5.0cm" /><line x1="16.1891693776cm" x2="16.221389676cm" y1="5.0cm" y2="4.92cm" /><line x1="16.221389676cm" x2="16.2518343401cm" y1="4.92cm" y2="4.84cm" /><line x1="16.2518343401cm" x2="16.2805396666cm" y1="4.84cm" y2="4.76cm" /><line x1="16.2805396666cm" x2="16.3075404186cm" y1="4.76cm" y2="4.68cm" /><line x1="16.3075404186cm" x2="16.3328699221cm" y1="4.68cm" y2="4.6cm" /><line x1="16.3328699221cm" x2="16.3565601641cm" y1="4.6cm" y2="4.52cm" /><line x1="16.3565601641cm" x2="16.3786418905cm" y1="4.52cm" y2="4.44cm" /><line x1="16.3786418905cm" x2="16.3991447029cm" y1="4.44cm" y2="4.36cm" /><line x1="16.3991447029cm" x2="16.4180971527cm" y1="4.36cm" y2="4.28cm" /><line x1="16.4180971527cm" x2="16.4355268324cm" y1="4.28cm" y2="4.2cm" /><line x1="16.4355268324cm" x2="16.4514604619cm" y1="4.2cm" y2="4.12cm" /><line x1="16.4514604619cm" x2="16.4659239712cm" y1="4.12cm" y2="4.04cm" /><line x1="16.4659239712cm" x2="16.4789425785cm" y1="4.04cm" y2="3.96cm" /><line x1="16.4789425785cm" x2="16.4905408631cm" y1="3.96cm" y2="3.88cm" /><line x1="16.4905408631cm" x2="16.5007428331cm" y1="3.88cm" y2="3.8cm" /><line x1="16.5007428331cm" x2="16.5095719894cm" y1="3.8cm" y2="3.72cm" /><line x1="16.5095719894cm" x2="16.5170513841cm" y1="3.72cm" y2="3.64cm" /><line x1="16.5170513841cm" x2="16.5232036739cm" y1="3.64cm" y2="3.56cm" /><line x1="16.5232036739cm" x2="16.52805117cm" y1="3.56cm" y2="3.48cm" /><line x1="16.52805117cm" x2="16.5316158833cm" y1="3.48cm" y2="3.4cm" /><line x1="16.5316158833cm" x2="16.5339195645cm" y1="3.4cm" y2="3.32cm" /><line x1="16.5339195645cm" x2="16.534983742cm" y1="3.32cm" y2="3.24cm" /><line x1="16.534983742cm" x2="16.5348297544cm" y1="3.24cm" y2="3.16cm" /><line x1="16.5348297544cm" x2="16.5334787804cm" y1="3.16cm" y2="3.08cm" /><line x1="16.5334787804cm" x2="16.5309518649cm" y1="3.08cm" y2="3.0cm" /><line x1="16.5309518649cm" x2="16.5272699425cm" y1="3.0cm" y2="2.92cm" /><line x1="16.5272699425cm" x2="16.5224538569cm" y1="2.92cm" y2="2.84cm" /><line x1="16.5224538569cm" x2="16.516524379cm" y1="2.84cm" y2="2.76cm" /><line x1="16.516524379cm" x2="16.5095022211cm" y1="2.76cm" y2="2.68cm" /><line x1="16.5095022211cm" x2="16.5014080493cm" y1="2.68cm" y2="2.6cm" /><line x1="16.5014080493cm" x2="16.4922624938cm" y1="2.6cm" y2="2.52cm" /><line x1="16.4922624938cm" x2="16.4820861566cm" y1="2.52cm" y2="2.44cm" /><line x1="16.4820861566cm" x2="16.4708996177cm" y1="2.44cm" y2="2.36cm" /><line x1="16.4708996177cm" x2="16.4587234391cm" y1="2.36cm" y2="2.28cm" /><line x1="16.4587234391cm" x2="16.4455781675cm" y1="2.28cm" y2="2.2cm" /><line x1="16.4455781675cm" x2="16.4314843356cm" y1="2.2cm" y2="2.12cm" /><line x1="16.4314843356cm" x2="16.4164624614cm" y1="2.12cm" y2="2.04cm" /><line x1="16.4164624614cm" x2="16.4005330469cm" y1="2.04cm" y2="1.96cm" /><line x1="16.4005330469cm" x2="16.3837165751cm" y1="1.96cm" y2="1.88cm" /><line x1="16.3837165751cm" x2="16.3660335067cm" y1="1.88cm" y2="1.8cm" /><line x1="16.3660335067cm" x2="16.3475042753cm" y1="1.8cm" y2="1.72cm" /><line x1="16.3475042753cm" x2="16.3281492814cm" y1="1.72cm" y2="1.64cm" /><line x1="16.3281492814cm" x2="16.3079888872cm" y1="1.64cm" y2="1.56cm" /><line x1="16.3079888872cm" x2="16.267491871cm" y1="1.56cm" y2="1.48cm" /><line x1="16.267491871cm" x2="16.2653331095cm" y1="1.48cm" y2="1.4cm" /><line x1="16.2653331095cm" x2="16.2428781913cm" y1="1.4cm" y2="1.32cm" /><line x1="16.2428781913cm" x2="16.2196987874cm" y1="1.32cm" y2="1.24cm" /><line x1="16.2196987874cm" x2="16.1958149528cm" y1="1.24cm" y2="1.16cm" /><line x1="16.1958149528cm" x2="16.1712466563cm" y1="1.16cm" y2="1.08cm" /><line x1="16.1712466563cm" x2="16.1460137708cm" y1="1.08cm" y2="1.0cm" /><line x1="1.34581436443cm" x2="1.31359406603cm" y1="5.0cm" y2="4.92cm" /><line x1="1.31359406603cm" x2="1.28314940185cm" y1="4.92cm" y2="4.84cm" /><line x1="1.28314940185cm" x2="1.2544440754cm" y1="4.84cm" y2="4.76cm" /><line x1="1.2544440754cm" x2="1.22744332342cm" y1="4.76cm" y2="4.68cm" /><line x1="1.22744332342cm" x2="1.20211381988cm" y1="4.68cm" y2="4.6cm" /><line x1="1.20211381988cm" x2="1.17842357785cm" y1="4.6cm" y2="4.52cm" /><line x1="1.17842357785cm" x2="1.15634185147cm" y1="4.52cm" y2="4.44cm" /><line x1="1.15634185147cm" x2="1.13583903911cm" y1="4.44cm" y2="4.36cm" /><line x1="1.13583903911cm" x2="1.11688658925cm" y1="4.36cm" y2="4.28cm" /><line x1="1.11688658925cm" x2="1.09945690958cm" y1="4.28cm" y2="4.2cm" /><line x1="1.09945690958cm" x2="1.08352328014cm" y1="4.2cm" y2="4.12cm" /><line x1="1.08352328014cm" x2="1.06905977081cm" y1="4.12cm" y2="4.04cm" /><line x1="1.06905977081cm" x2="1.05604116345cm" y1="4.04cm" y2="3.96cm" /><line x1="1.05604116345cm" x2="1.04444287894cm" y1="3.96cm" y2="3.88cm" /><line x1="1.04444287894cm" x2="1.03424090892cm" y1="3.88cm" y2="3.8cm" /><line x1="1.03424090892cm" x2="1.02541175256cm" y1="3.8cm" y2="3.72cm" /><line x1="1.02541175256cm" x2="1.01793235793cm" y1="3.72cm" y2="3.64cm" /><line x1="1.01793235793cm" x2="1.01178006814cm" y1="3.64cm" y2="3.56cm" /><line x1="1.01178006814cm" x2="1.00693257197cm" y1="3.56cm" y2="3.48cm" /><line x1="1.00693257197cm" x2="1.00336785874cm" y1="3.48cm" y2="3.4cm" /><line x1="1.00336785874cm" x2="1.00106417749cm" y1="3.4cm" y2="3.32cm" /><line x1="1.00106417749cm" x2="1.0cm" y1="3.32cm" y2="3.24cm" /><line x1="1.0cm" x2="1.00015398762cm" y1="3.24cm" y2="3.16cm" /><line x1="1.00015398762cm" x2="1.00150496164cm" y1="3.16cm" y2="3.08cm" /><line x1="1.00150496164cm" x2="1.00403187706cm" y1="3.08cm" y2="3.0cm" /><line x1="1.00403187706cm" x2="1.0077137995cm" y1="3.0cm" y2="2.92cm" /><line x1="1.0077137995cm" x2="1.01252988505cm" y1="2.92cm" y2="2.84cm" /><line x1="1.01252988505cm" x2="1.01845936297cm" y1="2.84cm" y2="2.76cm" /><line x1="1.01845936297cm" x2="1.02548152092cm" y1="2.76cm" y2="2.68cm" /><line x1="1.02548152092cm" x2="1.03357569271cm" y1="2.68cm" y2="2.6cm" /><line x1="1.03357569271cm" x2="1.04272124821cm" y1="2.6cm" y2="2.52cm" /><line x1="1.04272124821cm" x2="1.05289758538cm" y1="2.52cm" y2="2.44cm" /><line x1="1.05289758538cm" x2="1.06408412431cm" y1="2.44cm" y2="2.36cm" /><line x1="1.06408412431cm" x2="1.07626030293cm" y1="2.36cm" y2="2.28cm" /><line x1="1.07626030293cm" x2="1.08940557446cm" y1="2.28cm" y2="2.2cm" /><line x1="1.08940557446cm" x2="1.10349940635cm" y1="2.2cm" y2="2.12cm" /><line x1="1.10349940635cm" x2="1.11852128056cm" y1="2.12cm" y2="2.04cm" /><line x1="1.11852128056cm" x2="1.13445069513cm" y1="2.04cm" y2="1.96cm" /><line x1="1.13445069513cm" x2="1.15126716691cm" y1="1.96cm" y2="1.88cm" /><line x1="1.15126716691cm" x2="1.16895023526cm" y1="1.88cm" y2="1.8cm" /><line x1="1.16895023526cm" x2="1.18747946674cm" y1="1.8cm" y2="1.72cm" /><line x1="1.18747946674cm" x2="1.20683446055cm" y1="1.72cm" y2="1.64cm" /><line x1="1.20683446055cm" x2="1.22699485475cm" y1="1.64cm" y2="1.56cm" /><line x1="1.22699485475cm" x2="1.267491871cm" y1="1.56cm" y2="1.48cm" /><line x1="1.267491871cm" x2="1.26965063248cm" y1="1.48cm" y2="1.4cm" /><line x1="1.26965063248cm" x2="1.29210555065cm" y1="1.4cm" y2="1.32cm" /><line x1="1.29210555065cm" x2="1.31528495462cm" y1="1.32cm" y2="1.24cm" /><line x1="1.31528495462cm" x2="1.33916878917cm" y1="1.24cm" y2="1.16cm" /><line x1="1.33916878917cm" x2="1.36373708568cm" y1="1.16cm" y2="1.08cm" /><line x1="1.36373708568cm" x2="1.38896997118cm" y1="1.08cm" y2="1.0cm" /><line x1="13.7152768754cm" x2="13.7367570743cm" y1="5.0cm" y2="4.92cm" /><line x1="13.7367570743cm" x2="13.7570535171cm" y1="4.92cm" y2="4.84cm" /><line x1="13.7570535171cm" x2="13.7761904014cm" y1="4.84cm" y2="4.76cm" /><line x1="13.7761904014cm" x2="13.7941909027cm" y1="4.76cm" y2="4.68cm" /><line x1="13.7941909027cm" x2="13.8110772384cm" y1="4.68cm" y2="4.6cm" /><line x1="13.8110772384cm" x2="13.8268707331cm" y1="4.6cm" y2="4.52cm" /><line x1="13.8268707331cm" x2="13.841591884cm" y1="4.52cm" y2="4.44cm" /><line x1="13.841591884cm" x2="13.8552604256cm" y1="4.44cm" y2="4.36cm" /><line x1="13.8552604256cm" x2="13.8678953922cm" y1="4.36cm" y2="4.28cm" /><line x1="13.8678953922cm" x2="13.8795151786cm" y1="4.28cm" y2="4.2cm" /><line x1="13.8795151786cm" x2="13.8901375982cm" y1="4.2cm" y2="4.12cm" /><line x1="13.8901375982cm" x2="13.8997799378cm" y1="4.12cm" y2="4.04cm" /><line x1="13.8997799378cm" x2="13.9084590094cm" y1="4.04cm" y2="3.96cm" /><line x1="13.9084590094cm" x2="13.916191199cm" y1="3.96cm" y2="3.88cm" /><line x1="13.916191199cm" x2="13.9229925124cm" y1="3.88cm" y2="3.8cm" /><line x1="13.9229925124cm" x2="13.9288786166cm" y1="3.8cm" y2="3.72cm" /><line x1="13.9288786166cm" x2="13.9338648797cm" y1="3.72cm" y2="3.64cm" /><line x1="13.9338648797cm" x2="13.9379664062cm" y1="3.64cm" y2="3.56cm" /><line x1="13.9379664062cm" x2="13.9411980704cm" y1="3.56cm" y2="3.48cm" /><line x1="13.9411980704cm" x2="13.9435745458cm" y1="3.48cm" y2="3.4cm" /><line x1="13.9435745458cm" x2="13.9451103333cm" y1="3.4cm" y2="3.32cm" /><line x1="13.9451103333cm" x2="13.945819785cm" y1="3.32cm" y2="3.24cm" /><line x1="13.945819785cm" x2="13.9457171266cm" y1="3.24cm" y2="3.16cm" /><line x1="13.9457171266cm" x2="13.9448164772cm" y1="3.16cm" y2="3.08cm" /><line x1="13.9448164772cm" x2="13.943131867cm" y1="3.08cm" y2="3.0cm" /><line x1="13.943131867cm" x2="13.940677252cm" y1="3.0cm" y2="2.92cm" /><line x1="13.940677252cm" x2="13.9374665283cm" y1="2.92cm" y2="2.84cm" /><line x1="13.9374665283cm" x2="13.933513543cm" y1="2.84cm" y2="2.76cm" /><line x1="13.933513543cm" x2="13.9288321044cm" y1="2.76cm" y2="2.68cm" /><line x1="13.9288321044cm" x2="13.9234359899cm" y1="2.68cm" y2="2.6cm" /><line x1="13.9234359899cm" x2="13.9173389529cm" y1="2.6cm" y2="2.52cm" /><line x1="13.9173389529cm" x2="13.9105547281cm" y1="2.52cm" y2="2.44cm" /><line x1="13.9105547281cm" x2="13.9030970355cm" y1="2.44cm" y2="2.36cm" /><line x1="13.9030970355cm" x2="13.894979583cm" y1="2.36cm" y2="2.28cm" /><line x1="13.894979583cm" x2="13.8862160687cm" y1="2.28cm" y2="2.2cm" /><line x1="13.8862160687cm" x2="13.8768201808cm" y1="2.2cm" y2="2.12cm" /><line x1="13.8768201808cm" x2="13.866805598cm" y1="2.12cm" y2="2.04cm" /><line x1="13.866805598cm" x2="13.8561859882cm" y1="2.04cm" y2="1.96cm" /><line x1="13.8561859882cm" x2="13.8449750071cm" y1="1.96cm" y2="1.88cm" /><line x1="13.8449750071cm" x2="13.8331862948cm" y1="1.88cm" y2="1.8cm" /><line x1="13.8331862948cm" x2="13.8208334738cm" y1="1.8cm" y2="1.72cm" /><line x1="13.8208334738cm" x2="13.8079301446cm" y1="1.72cm" y2="1.64cm" /><line x1="13.8079301446cm" x2="13.7944898818cm" y1="1.64cm" y2="1.56cm" /><line x1="13.7944898818cm" x2="13.767491871cm" y1="1.56cm" y2="1.48cm" /><line x1="13.767491871cm" x2="13.7660526967cm" y1="1.48cm" y2="1.4cm" /><line x1="13.7660526967cm" x2="13.7510827512cm" y1="1.4cm" y2="1.32cm" /><line x1="13.7510827512cm" x2="13.7356298152cm" y1="1.32cm" y2="1.24cm" /><line x1="13.7356298152cm" x2="13.7197072589cm" y1="1.24cm" y2="1.16cm" /><line x1="13.7197072589cm" x2="13.7033283945cm" y1="1.16cm" y2="1.08cm" /><line x1="13.7033283945cm" x2="13.6865064709cm" y1="1.08cm" y2="1.0cm" /><line x1="3.81970686662cm" x2="3.79822666768cm" y1="5.0cm" y2="4.92cm" /><line x1="3.79822666768cm" x2="3.7779302249cm" y1="4.92cm" y2="4.84cm" /><line x1="3.7779302249cm" x2="3.7587933406cm" y1="4.84cm" y2="4.76cm" /><line x1="3.7587933406cm" x2="3.74079283928cm" y1="4.76cm" y2="4.68cm" /><line x1="3.74079283928cm" x2="3.72390650358cm" y1="4.68cm" y2="4.6cm" /><line x1="3.72390650358cm" x2="3.7081130089cm" y1="4.6cm" y2="4.52cm" /><line x1="3.7081130089cm" x2="3.69339185798cm" y1="4.52cm" y2="4.44cm" /><line x1="3.69339185798cm" x2="3.6797233164cm" y1="4.44cm" y2="4.36cm" /><line x1="3.6797233164cm" x2="3.66708834983cm" y1="4.36cm" y2="4.28cm" /><line x1="3.66708834983cm" x2="3.65546856339cm" y1="4.28cm" y2="4.2cm" /><line x1="3.65546856339cm" x2="3.64484614376cm" y1="4.2cm" y2="4.12cm" /><line x1="3.64484614376cm" x2="3.6352038042cm" y1="4.12cm" y2="4.04cm" /><line x1="3.6352038042cm" x2="3.62652473263cm" y1="4.04cm" y2="3.96cm" /><line x1="3.62652473263cm" x2="3.61879254296cm" y1="3.96cm" y2="3.88cm" /><line x1="3.61879254296cm" x2="3.61199122961cm" y1="3.88cm" y2="3.8cm" /><line x1="3.61199122961cm" x2="3.60610512537cm" y1="3.8cm" y2="3.72cm" /><line x1="3.60610512537cm" x2="3.60111886228cm" y1="3.72cm" y2="3.64cm" /><line x1="3.60111886228cm" x2="3.59701733576cm" y1="3.64cm" y2="3.56cm" /><line x1="3.59701733576cm" x2="3.59378567164cm" y1="3.56cm" y2="3.48cm" /><line x1="3.59378567164cm" x2="3.59140919616cm" y1="3.48cm" y2="3.4cm" /><line x1="3.59140919616cm" x2="3.58987340866cm" y1="3.4cm" y2="3.32cm" /><line x1="3.58987340866cm" x2="3.589163957cm" y1="3.32cm" y2="3.24cm" /><line x1="3.589163957cm" x2="3.58926661541cm" y1="3.24cm" y2="3.16cm" /><line x1="3.58926661541cm" x2="3.59016726476cm" y1="3.16cm" y2="3.08cm" /><line x1="3.59016726476cm" x2="3.59185187504cm" y1="3.08cm" y2="3.0cm" /><line x1="3.59185187504cm" x2="3.59430649cm" y1="3.0cm" y2="2.92cm" /><line x1="3.59430649cm" x2="3.5975172137cm" y1="2.92cm" y2="2.84cm" /><line x1="3.5975172137cm" x2="3.60147019898cm" y1="2.84cm" y2="2.76cm" /><line x1="3.60147019898cm" x2="3.60615163761cm" y1="2.76cm" y2="2.68cm" /><line x1="3.60615163761cm" x2="3.61154775214cm" y1="2.68cm" y2="2.6cm" /><line x1="3.61154775214cm" x2="3.61764478914cm" y1="2.6cm" y2="2.52cm" /><line x1="3.61764478914cm" x2="3.62442901392cm" y1="2.52cm" y2="2.44cm" /><line x1="3.62442901392cm" x2="3.63188670654cm" y1="2.44cm" y2="2.36cm" /><line x1="3.63188670654cm" x2="3.64000415895cm" y1="2.36cm" y2="2.28cm" /><line x1="3.64000415895cm" x2="3.64876767331cm" y1="2.28cm" y2="2.2cm" /><line x1="3.64876767331cm" x2="3.65816356123cm" y1="2.2cm" y2="2.12cm" /><line x1="3.65816356123cm" x2="3.66817814404cm" y1="2.12cm" y2="2.04cm" /><line x1="3.66817814404cm" x2="3.67879775375cm" y1="2.04cm" y2="1.96cm" /><line x1="3.67879775375cm" x2="3.69000873494cm" y1="1.96cm" y2="1.88cm" /><line x1="3.69000873494cm" x2="3.70179744718cm" y1="1.88cm" y2="1.8cm" /><line x1="3.70179744718cm" x2="3.71415026816cm" y1="1.8cm" y2="1.72cm" /><line x1="3.71415026816cm" x2="3.72705359736cm" y1="1.72cm" y2="1.64cm" /><line x1="3.72705359736cm" x2="3.74049386017cm" y1="1.64cm" y2="1.56cm" /><line x1="3.74049386017cm" x2="3.767491871cm" y1="1.56cm" y2="1.48cm" /><line x1="3.767491871cm" x2="3.76893104532cm" y1="1.48cm" y2="1.4cm" /><line x1="3.76893104532cm" x2="3.78390099077cm" y1="1.4cm" y2="1.32cm" /><line x1="3.78390099077cm" x2="3.79935392675cm" y1="1.32cm" y2="1.24cm" /><line x1="3.79935392675cm" x2="3.81527648311cm" y1="1.24cm" y2="1.16cm" /><line x1="3.81527648311cm" x2="3.83165534745cm" y1="1.16cm" y2="1.08cm" /><line x1="3.83165534745cm" x2="3.84847727112cm" y1="1.08cm" y2="1.0cm" /><line x1="11.2413843732cm" x2="11.2521244727cm" y1="5.0cm" y2="4.92cm" /><line x1="11.2521244727cm" x2="11.262272694cm" y1="4.92cm" y2="4.84cm" /><line x1="11.262272694cm" x2="11.2718411362cm" y1="4.84cm" y2="4.76cm" /><line x1="11.2718411362cm" x2="11.2808413869cm" y1="4.76cm" y2="4.68cm" /><line x1="11.2808413869cm" x2="11.2892845547cm" y1="4.68cm" y2="4.6cm" /><line x1="11.2892845547cm" x2="11.297181302cm" y1="4.6cm" y2="4.52cm" /><line x1="11.297181302cm" x2="11.3045418775cm" y1="4.52cm" y2="4.44cm" /><line x1="11.3045418775cm" x2="11.3113761483cm" y1="4.44cm" y2="4.36cm" /><line x1="11.3113761483cm" x2="11.3176936316cm" y1="4.36cm" y2="4.28cm" /><line x1="11.3176936316cm" x2="11.3235035248cm" y1="4.28cm" y2="4.2cm" /><line x1="11.3235035248cm" x2="11.3288147346cm" y1="4.2cm" y2="4.12cm" /><line x1="11.3288147346cm" x2="11.3336359044cm" y1="4.12cm" y2="4.04cm" /><line x1="11.3336359044cm" x2="11.3379754402cm" y1="4.04cm" y2="3.96cm" /><line x1="11.3379754402cm" x2="11.341841535cm" y1="3.96cm" y2="3.88cm" /><line x1="11.341841535cm" x2="11.3452421917cm" y1="3.88cm" y2="3.8cm" /><line x1="11.3452421917cm" x2="11.3481852438cm" y1="3.8cm" y2="3.72cm" /><line x1="11.3481852438cm" x2="11.3506783754cm" y1="3.72cm" y2="3.64cm" /><line x1="11.3506783754cm" x2="11.3527291386cm" y1="3.64cm" y2="3.56cm" /><line x1="11.3527291386cm" x2="11.3543449707cm" y1="3.56cm" y2="3.48cm" /><line x1="11.3543449707cm" x2="11.3555332084cm" y1="3.48cm" y2="3.4cm" /><line x1="11.3555332084cm" x2="11.3563011022cm" y1="3.4cm" y2="3.32cm" /><line x1="11.3563011022cm" x2="11.356655828cm" y1="3.32cm" y2="3.24cm" /><line x1="11.356655828cm" x2="11.3566044988cm" y1="3.24cm" y2="3.16cm" /><line x1="11.3566044988cm" x2="11.3561541741cm" y1="3.16cm" y2="3.08cm" /><line x1="11.3561541741cm" x2="11.355311869cm" y1="3.08cm" y2="3.0cm" /><line x1="11.355311869cm" x2="11.3540845615cm" y1="3.0cm" y2="2.92cm" /><line x1="11.3540845615cm" x2="11.3524791996cm" y1="2.92cm" y2="2.84cm" /><line x1="11.3524791996cm" x2="11.350502707cm" y1="2.84cm" y2="2.76cm" /><line x1="11.350502707cm" x2="11.3481619877cm" y1="2.76cm" y2="2.68cm" /><line x1="11.3481619877cm" x2="11.3454639304cm" y1="2.68cm" y2="2.6cm" /><line x1="11.3454639304cm" x2="11.3424154119cm" y1="2.6cm" y2="2.52cm" /><line x1="11.3424154119cm" x2="11.3390232995cm" y1="2.52cm" y2="2.44cm" /><line x1="11.3390232995cm" x2="11.3352944532cm" y1="2.44cm" y2="2.36cm" /><line x1="11.3352944532cm" x2="11.331235727cm" y1="2.36cm" y2="2.28cm" /><line x1="11.331235727cm" x2="11.3268539698cm" y1="2.28cm" y2="2.2cm" /><line x1="11.3268539698cm" x2="11.3221560259cm" y1="2.2cm" y2="2.12cm" /><line x1="11.3221560259cm" x2="11.3171487345cm" y1="2.12cm" y2="2.04cm" /><line x1="11.3171487345cm" x2="11.3118389296cm" y1="2.04cm" y2="1.96cm" /><line x1="11.3118389296cm" x2="11.306233439cm" y1="1.96cm" y2="1.88cm" /><line x1="11.306233439cm" x2="11.3003390829cm" y1="1.88cm" y2="1.8cm" /><line x1="11.3003390829cm" x2="11.2941626724cm" y1="1.8cm" y2="1.72cm" /><line x1="11.2941626724cm" x2="11.2877110078cm" y1="1.72cm" y2="1.64cm" /><line x1="11.2877110078cm" x2="11.2809908764cm" y1="1.64cm" y2="1.56cm" /><line x1="11.2809908764cm" x2="11.267491871cm" y1="1.56cm" y2="1.48cm" /><line x1="11.267491871cm" x2="11.2667722838cm" y1="1.48cm" y2="1.4cm" /><line x1="11.2667722838cm" x2="11.2592873111cm" y1="1.4cm" y2="1.32cm" /><line x1="11.2592873111cm" x2="11.2515608431cm" y1="1.32cm" y2="1.24cm" /><line x1="11.2515608431cm" x2="11.2435995649cm" y1="1.24cm" y2="1.16cm" /><line x1="11.2435995649cm" x2="11.2354101328cm" y1="1.16cm" y2="1.08cm" /><line x1="11.2354101328cm" x2="11.2269991709cm" y1="1.08cm" y2="1.0cm" /><line x1="6.29359936881cm" x2="6.28285926934cm" y1="5.0cm" y2="4.92cm" /><line x1="6.28285926934cm" x2="6.27271104795cm" y1="4.92cm" y2="4.84cm" /><line x1="6.27271104795cm" x2="6.2631426058cm" y1="4.84cm" y2="4.76cm" /><line x1="6.2631426058cm" x2="6.25414235514cm" y1="4.76cm" y2="4.68cm" /><line x1="6.25414235514cm" x2="6.24569918729cm" y1="4.68cm" y2="4.6cm" /><line x1="6.24569918729cm" x2="6.23780243995cm" y1="4.6cm" y2="4.52cm" /><line x1="6.23780243995cm" x2="6.23044186449cm" y1="4.52cm" y2="4.44cm" /><line x1="6.23044186449cm" x2="6.2236075937cm" y1="4.44cm" y2="4.36cm" /><line x1="6.2236075937cm" x2="6.21729011041cm" y1="4.36cm" y2="4.28cm" /><line x1="6.21729011041cm" x2="6.21148021719cm" y1="4.28cm" y2="4.2cm" /><line x1="6.21148021719cm" x2="6.20616900738cm" y1="4.2cm" y2="4.12cm" /><line x1="6.20616900738cm" x2="6.2013478376cm" y1="4.12cm" y2="4.04cm" /><line x1="6.2013478376cm" x2="6.19700830182cm" y1="4.04cm" y2="3.96cm" /><line x1="6.19700830182cm" x2="6.19314220698cm" y1="3.96cm" y2="3.88cm" /><line x1="6.19314220698cm" x2="6.18974155031cm" y1="3.88cm" y2="3.8cm" /><line x1="6.18974155031cm" x2="6.18679849818cm" y1="3.8cm" y2="3.72cm" /><line x1="6.18679849818cm" x2="6.18430536664cm" y1="3.72cm" y2="3.64cm" /><line x1="6.18430536664cm" x2="6.18225460338cm" y1="3.64cm" y2="3.56cm" /><line x1="6.18225460338cm" x2="6.18063877132cm" y1="3.56cm" y2="3.48cm" /><line x1="6.18063877132cm" x2="6.17945053358cm" y1="3.48cm" y2="3.4cm" /><line x1="6.17945053358cm" x2="6.17868263983cm" y1="3.4cm" y2="3.32cm" /><line x1="6.17868263983cm" x2="6.178327914cm" y1="3.32cm" y2="3.24cm" /><line x1="6.178327914cm" x2="6.1783792432cm" y1="3.24cm" y2="3.16cm" /><line x1="6.1783792432cm" x2="6.17882956788cm" y1="3.16cm" y2="3.08cm" /><line x1="6.17882956788cm" x2="6.17967187302cm" y1="3.08cm" y2="3.0cm" /><line x1="6.17967187302cm" x2="6.1808991805cm" y1="3.0cm" y2="2.92cm" /><line x1="6.1808991805cm" x2="6.18250454235cm" y1="2.92cm" y2="2.84cm" /><line x1="6.18250454235cm" x2="6.18448103499cm" y1="2.84cm" y2="2.76cm" /><line x1="6.18448103499cm" x2="6.18682175431cm" y1="2.76cm" y2="2.68cm" /><line x1="6.18682175431cm" x2="6.18951981157cm" y1="2.68cm" y2="2.6cm" /><line x1="6.18951981157cm" x2="6.19256833007cm" y1="2.6cm" y2="2.52cm" /><line x1="6.19256833007cm" x2="6.19596044246cm" y1="2.52cm" y2="2.44cm" /><line x1="6.19596044246cm" x2="6.19968928877cm" y1="2.44cm" y2="2.36cm" /><line x1="6.19968928877cm" x2="6.20374801497cm" y1="2.36cm" y2="2.28cm" /><line x1="6.20374801497cm" x2="6.20812977215cm" y1="2.28cm" y2="2.2cm" /><line x1="6.20812977215cm" x2="6.21282771612cm" y1="2.2cm" y2="2.12cm" /><line x1="6.21282771612cm" x2="6.21783500752cm" y1="2.12cm" y2="2.04cm" /><line x1="6.21783500752cm" x2="6.22314481238cm" y1="2.04cm" y2="1.96cm" /><line x1="6.22314481238cm" x2="6.22875030297cm" y1="1.96cm" y2="1.88cm" /><line x1="6.22875030297cm" x2="6.23464465909cm" y1="1.88cm" y2="1.8cm" /><line x1="6.23464465909cm" x2="6.24082106958cm" y1="1.8cm" y2="1.72cm" /><line x1="6.24082106958cm" x2="6.24727273418cm" y1="1.72cm" y2="1.64cm" /><line x1="6.24727273418cm" x2="6.25399286558cm" y1="1.64cm" y2="1.56cm" /><line x1="6.25399286558cm" x2="6.267491871cm" y1="1.56cm" y2="1.48cm" /><line x1="6.267491871cm" x2="6.26821145816cm" y1="1.48cm" y2="1.4cm" /><line x1="6.26821145816cm" x2="6.27569643088cm" y1="1.4cm" y2="1.32cm" /><line x1="6.27569643088cm" x2="6.28342289887cm" y1="1.32cm" y2="1.24cm" /><line x1="6.28342289887cm" x2="6.29138417706cm" y1="1.24cm" y2="1.16cm" /><line x1="6.29138417706cm" x2="6.29957360923cm" y1="1.16cm" y2="1.08cm" /><line x1="6.29957360923cm" x2="6.30798457106cm" y1="1.08cm" y2="1.0cm" /><line x1="10.0044381221cm" x2="10.0098081718cm" y1="5.0cm" y2="4.92cm" /><line x1="10.0098081718cm" x2="10.0148822825cm" y1="4.92cm" y2="4.84cm" /><line x1="10.0148822825cm" x2="10.0196665036cm" y1="4.84cm" y2="4.76cm" /><line x1="10.0196665036cm" x2="10.0241666289cm" y1="4.76cm" y2="4.68cm" /><line x1="10.0241666289cm" x2="10.0283882129cm" y1="4.68cm" y2="4.6cm" /><line x1="10.0283882129cm" x2="10.0323365865cm" y1="4.6cm" y2="4.52cm" /><line x1="10.0323365865cm" x2="10.0360168743cm" y1="4.52cm" y2="4.44cm" /><line x1="10.0360168743cm" x2="10.0394340096cm" y1="4.44cm" y2="4.36cm" /><line x1="10.0394340096cm" x2="10.0425927513cm" y1="4.36cm" y2="4.28cm" /><line x1="10.0425927513cm" x2="10.0454976979cm" y1="4.28cm" y2="4.2cm" /><line x1="10.0454976979cm" x2="10.0481533028cm" y1="4.2cm" y2="4.12cm" /><line x1="10.0481533028cm" x2="10.0505638877cm" y1="4.12cm" y2="4.04cm" /><line x1="10.0505638877cm" x2="10.0527336556cm" y1="4.04cm" y2="3.96cm" /><line x1="10.0527336556cm" x2="10.054666703cm" y1="3.96cm" y2="3.88cm" /><line x1="10.054666703cm" x2="10.0563670313cm" y1="3.88cm" y2="3.8cm" /><line x1="10.0563670313cm" x2="10.0578385574cm" y1="3.8cm" y2="3.72cm" /><line x1="10.0578385574cm" x2="10.0590851232cm" y1="3.72cm" y2="3.64cm" /><line x1="10.0590851232cm" x2="10.0601105048cm" y1="3.64cm" y2="3.56cm" /><line x1="10.0601105048cm" x2="10.0609184208cm" y1="3.56cm" y2="3.48cm" /><line x1="10.0609184208cm" x2="10.0615125397cm" y1="3.48cm" y2="3.4cm" /><line x1="10.0615125397cm" x2="10.0618964866cm" y1="3.4cm" y2="3.32cm" /><line x1="10.0618964866cm" x2="10.0620738495cm" y1="3.32cm" y2="3.24cm" /><line x1="10.0620738495cm" x2="10.0620481849cm" y1="3.24cm" y2="3.16cm" /><line x1="10.0620481849cm" x2="10.0618230226cm" y1="3.16cm" y2="3.08cm" /><line x1="10.0618230226cm" x2="10.06140187cm" y1="3.08cm" y2="3.0cm" /><line x1="10.06140187cm" x2="10.0607882162cm" y1="3.0cm" y2="2.92cm" /><line x1="10.0607882162cm" x2="10.0599855353cm" y1="2.92cm" y2="2.84cm" /><line x1="10.0599855353cm" x2="10.058997289cm" y1="2.84cm" y2="2.76cm" /><line x1="10.058997289cm" x2="10.0578269293cm" y1="2.76cm" y2="2.68cm" /><line x1="10.0578269293cm" x2="10.0564779007cm" y1="2.68cm" y2="2.6cm" /><line x1="10.0564779007cm" x2="10.0549536415cm" y1="2.6cm" y2="2.52cm" /><line x1="10.0549536415cm" x2="10.0532575853cm" y1="2.52cm" y2="2.44cm" /><line x1="10.0532575853cm" x2="10.0513931621cm" y1="2.44cm" y2="2.36cm" /><line x1="10.0513931621cm" x2="10.049363799cm" y1="2.36cm" y2="2.28cm" /><line x1="10.049363799cm" x2="10.0471729204cm" y1="2.28cm" y2="2.2cm" /><line x1="10.0471729204cm" x2="10.0448239484cm" y1="2.2cm" y2="2.12cm" /><line x1="10.0448239484cm" x2="10.0423203027cm" y1="2.12cm" y2="2.04cm" /><line x1="10.0423203027cm" x2="10.0396654003cm" y1="2.04cm" y2="1.96cm" /><line x1="10.0396654003cm" x2="10.036862655cm" y1="1.96cm" y2="1.88cm" /><line x1="10.036862655cm" x2="10.033915477cm" y1="1.88cm" y2="1.8cm" /><line x1="10.033915477cm" x2="10.0308272717cm" y1="1.8cm" y2="1.72cm" /><line x1="10.0308272717cm" x2="10.0276014394cm" y1="1.72cm" y2="1.64cm" /><line x1="10.0276014394cm" x2="10.0242413737cm" y1="1.64cm" y2="1.56cm" /><line x1="10.0242413737cm" x2="10.017491871cm" y1="1.56cm" y2="1.48cm" /><line x1="10.017491871cm" x2="10.0171320774cm" y1="1.48cm" y2="1.4cm" /><line x1="10.0171320774cm" x2="10.0133895911cm" y1="1.4cm" y2="1.32cm" /><line x1="10.0133895911cm" x2="10.0095263571cm" y1="1.32cm" y2="1.24cm" /><line x1="10.0095263571cm" x2="10.005545718cm" y1="1.24cm" y2="1.16cm" /><line x1="10.005545718cm" x2="10.0014510019cm" y1="1.16cm" y2="1.08cm" /><line x1="10.0014510019cm" x2="9.99724552097cm" y1="1.08cm" y2="1.0cm" /><line x1="7.5305456199cm" x2="7.52517557017cm" y1="5.0cm" y2="4.92cm" /><line x1="7.52517557017cm" x2="7.52010145947cm" y1="4.92cm" y2="4.84cm" /><line x1="7.52010145947cm" x2="7.5153172384cm" y1="4.84cm" y2="4.76cm" /><line x1="7.5153172384cm" x2="7.51081711307cm" y1="4.76cm" y2="4.68cm" /><line x1="7.51081711307cm" x2="7.50659552914cm" y1="4.68cm" y2="4.6cm" /><line x1="7.50659552914cm" x2="7.50264715547cm" y1="4.6cm" y2="4.52cm" /><line x1="7.50264715547cm" x2="7.49896686774cm" y1="4.52cm" y2="4.44cm" /><line x1="7.49896686774cm" x2="7.49554973235cm" y1="4.44cm" y2="4.36cm" /><line x1="7.49554973235cm" x2="7.49239099071cm" y1="4.36cm" y2="4.28cm" /><line x1="7.49239099071cm" x2="7.4894860441cm" y1="4.28cm" y2="4.2cm" /><line x1="7.4894860441cm" x2="7.48683043919cm" y1="4.2cm" y2="4.12cm" /><line x1="7.48683043919cm" x2="7.4844198543cm" y1="4.12cm" y2="4.04cm" /><line x1="7.4844198543cm" x2="7.48225008641cm" y1="4.04cm" y2="3.96cm" /><line x1="7.48225008641cm" x2="7.48031703899cm" y1="3.96cm" y2="3.88cm" /><line x1="7.48031703899cm" x2="7.47861671065cm" y1="3.88cm" y2="3.8cm" /><line x1="7.47861671065cm" x2="7.47714518459cm" y1="3.8cm" y2="3.72cm" /><line x1="7.47714518459cm" x2="7.47589861882cm" y1="3.72cm" y2="3.64cm" /><line x1="7.47589861882cm" x2="7.47487323719cm" y1="3.64cm" y2="3.56cm" /><line x1="7.47487323719cm" x2="7.47406532116cm" y1="3.56cm" y2="3.48cm" /><line x1="7.47406532116cm" x2="7.47347120229cm" y1="3.48cm" y2="3.4cm" /><line x1="7.47347120229cm" x2="7.47308725541cm" y1="3.4cm" y2="3.32cm" /><line x1="7.47308725541cm" x2="7.4729098925cm" y1="3.32cm" y2="3.24cm" /><line x1="7.4729098925cm" x2="7.4729355571cm" y1="3.24cm" y2="3.16cm" /><line x1="7.4729355571cm" x2="7.47316071944cm" y1="3.16cm" y2="3.08cm" /><line x1="7.47316071944cm" x2="7.47358187201cm" y1="3.08cm" y2="3.0cm" /><line x1="7.47358187201cm" x2="7.47419552575cm" y1="3.0cm" y2="2.92cm" /><line x1="7.47419552575cm" x2="7.47499820667cm" y1="2.92cm" y2="2.84cm" /><line x1="7.47499820667cm" x2="7.47598645299cm" y1="2.84cm" y2="2.76cm" /><line x1="7.47598645299cm" x2="7.47715681265cm" y1="2.76cm" y2="2.68cm" /><line x1="7.47715681265cm" x2="7.47850584128cm" y1="2.68cm" y2="2.6cm" /><line x1="7.47850584128cm" x2="7.48003010053cm" y1="2.6cm" y2="2.52cm" /><line x1="7.48003010053cm" x2="7.48172615673cm" y1="2.52cm" y2="2.44cm" /><line x1="7.48172615673cm" x2="7.48359057988cm" y1="2.44cm" y2="2.36cm" /><line x1="7.48359057988cm" x2="7.48561994299cm" y1="2.36cm" y2="2.28cm" /><line x1="7.48561994299cm" x2="7.48781082157cm" y1="2.28cm" y2="2.2cm" /><line x1="7.48781082157cm" x2="7.49015979356cm" y1="2.2cm" y2="2.12cm" /><line x1="7.49015979356cm" x2="7.49266343926cm" y1="2.12cm" y2="2.04cm" /><line x1="7.49266343926cm" x2="7.49531834169cm" y1="2.04cm" y2="1.96cm" /><line x1="7.49531834169cm" x2="7.49812108698cm" y1="1.96cm" y2="1.88cm" /><line x1="7.49812108698cm" x2="7.50106826504cm" y1="1.88cm" y2="1.8cm" /><line x1="7.50106826504cm" x2="7.50415647029cm" y1="1.8cm" y2="1.72cm" /><line x1="7.50415647029cm" x2="7.50738230259cm" y1="1.72cm" y2="1.64cm" /><line x1="7.50738230259cm" x2="7.51074236829cm" y1="1.64cm" y2="1.56cm" /><line x1="7.51074236829cm" x2="7.517491871cm" y1="1.56cm" y2="1.48cm" /><line x1="7.517491871cm" x2="7.51785166458cm" y1="1.48cm" y2="1.4cm" /><line x1="7.51785166458cm" x2="7.52159415094cm" y1="1.4cm" y2="1.32cm" /><line x1="7.52159415094cm" x2="7.52545738494cm" y1="1.32cm" y2="1.24cm" /><line x1="7.52545738494cm" x2="7.52943802403cm" y1="1.24cm" y2="1.16cm" /><line x1="7.52943802403cm" x2="7.53353274011cm" y1="1.16cm" y2="1.08cm" /><line x1="7.53353274011cm" x2="7.53773822103cm" y1="1.08cm" y2="1.0cm" /></g><text x="16.1891693776cm" y="5.3cm">75km</text><text x="1.34581436443cm" y="5.3cm">75km</text><text x="13.7152768754cm" y="5.3cm">50km</text><text x="3.81970686662cm" y="5.3cm">50km</text><text x="11.2413843732cm" y="5.3cm">25km</text><text x="6.29359936881cm" y="5.3cm">25km</text><g id="horizontal_tick" stroke="black"><line x1="8.767491871cm" x2="16.534983742cm" y1="5.0cm" y2="5.0cm" /><line x1="1.0cm" x2="8.767491871cm" y1="5.0cm" y2="5.0cm" /><line x1="8.767491871cm" x2="16.534983742cm" y1="4.10280373832cm" y2="4.10280373832cm" /><line x1="1.0cm" x2="8.767491871cm" y1="4.10280373832cm" y2="4.10280373832cm" /><line x1="8.767491871cm" x2="16.534983742cm" y1="3.47975077882cm" y2="3.47975077882cm" /><line x1="1.0cm" x2="8.767491871cm" y1="3.47975077882cm" y2="3.47975077882cm" /><line x1="8.767491871cm" x2="16.534983742cm" y1="2.85669781931cm" y2="2.85669781931cm" /><line x1="1.0cm" x2="8.767491871cm" y1="2.85669781931cm" y2="2.85669781931cm" /><line x1="8.767491871cm" x2="16.534983742cm" y1="2.23364485981cm" y2="2.23364485981cm" /><line x1="1.0cm" x2="8.767491871cm" y1="2.23364485981cm" y2="2.23364485981cm" /><line x1="8.767491871cm" x2="16.534983742cm" y1="1.61059190031cm" y2="1.61059190031cm" /><line x1="1.0cm" x2="8.767491871cm" y1="1.61059190031cm" y2="1.61059190031cm" /><line x1="8.767491871cm" x2="16.534983742cm" y1="1.0cm" y2="1.0cm" /><line x1="1.0cm" x2="8.767491871cm" y1="1.0cm" y2="1.0cm" /></g></svg>