<?xml version="1.0" encoding="utf-8" ?>
<svg baseProfile="full" height="6.0cm" version="1.1" width="40.6758842568cm" xmlns="http://www.w3.org/2000/svg" xmlns:ev="http://www.w3.org/2001/xml-events" xmlns:xlink="http://www.w3.org/1999/xlink"><defs /><g font-size="12"><text x="39.6758842568cm" y="5.0cm">0.0°</text><text x="0.0cm" y="5.0cm">0.0°</text><text x="39.6758842568cm" y="4.27667269439cm">10.0°</text><text x="0.0cm" y="4.27667269439cm">10.0°</text><text x="39.6758842568cm" y="3.55334538879cm">20.0°</text><text x="0.0cm" y="3.55334538879cm">20.0°</text><text x="39.6758842568cm" y="2.83001808318cm">30.0°</text><text x="0.0cm" y="2.83001808318cm">30.0°</text><text x="39.6758842568cm" y="2.10669077758cm">40.0°</text><text x="0.0cm" y="2.10669077758cm">40.0°</text><text x="39.6758842568cm" y="1.38336347197cm">50.0°</text><text x="0.0cm" y="1.38336347197cm">50.0°</text></g><g id="vertical" stroke="black"><line x1="20.3379421284cm" x2="20.3379421284cm" y1="1.0cm" y2="1.16cm" /><line x1="20.3379421284cm" x2="20.3379421284cm" y1="1.16cm" y2="1.32cm" /><line x1="20.3379421284cm" x2="20.3379421284cm" y1="1.32cm" y2="1.48cm" /><line x1="20.3379421284cm" x2="20.3379421284cm" y1="1.48cm" y2="1.64cm" /><line x1="20.3379421284cm" x2="20.3379421284cm" y1="1.64cm" y2="1.8cm" /><line x1="20.3379421284cm" x2="20.3379421284cm" y1="1.8cm" y2="1.96cm" /><line x1="20.3379421284cm" x2="20.3379421284cm" y1="1.96cm" y2="2.12cm" /><line x1="20.3379421284cm" x2="20.3379421284cm" y1="2.12cm" y2="2.28cm" /><line x1="20.3379421284cm" x2="20.3379421284cm" y1="2.28cm" y2="2.44cm" /><line x1="20.3379421284cm" x2="20.3379421284cm" y1="2.44cm" y2="2.6cm" /><line x1="20.3379421284cm" x2="20.3379421284cm" y1="2.6cm" y2="2.76cm" /><line x1="20.3379421284cm" x2="20.3379421284cm" y1="2.76cm" y2="2.92cm" /><line x1="20.3379421284cm" x2="20.3379421284cm" y1="2.92cm" y2="3.08cm" /><line x1="20.3379421284cm" x2="20.3379421284cm" y1="3.08cm" y2="3.24cm" /><line x1="20.3379421284cm" x2="20.3379421284cm" y1="3.24cm" y2="3.4cm" /><line x1="20.3379421284cm" x2="20.3379421284cm" y1="3.4cm" y2="3.56cm" /><line x1="20.3379421284cm" x2="20.3379421284cm" y1="3.56cm" y2="3.72cm" /><line x1="20.3379421284cm" x2="20.3379421284cm" y1="3.72cm" y2="3.88cm" /><line x1="20.3379421284cm" x2="20.3379421284cm" y1="3.88cm" y2="4.04cm" /><line x1="20.3379421284cm" x2="20.3379421284cm" y1="4.04cm" y2="4.2cm" /><line x1="20.3379421284cm" x2="20.3379421284cm" y1="4.2cm" y2="4.36cm" /><line x1="20.3379421284cm" x2="20.3379421284cm" y1="4.36cm" y2="4.52cm" /><line x1="20.3379421284cm" x2="20.3379421284cm" y1="4.52cm" y2="4.68cm" /><line x1="20.3379421284cm" x2="20.3379421284cm" y1="4.68cm" y2="4.84cm" /><line x1="20.3379421284cm" x2="20.3379421284cm" y1="4.84cm" y2="5.0cm" /><line x1="27.8379421284cm" x2="28.1698590982cm" y1="5.0cm" y2="4.84cm" /><line x1="28.1698590982cm" x2="28.5143770417cm" y1="4.84cm" y2="4.68cm" /><line x1="28.5143770417cm" x2="28.8716967725cm" y1="4.68cm" y2="4.52cm" /><line x1="28.8716967725cm" x2="29.2419843699cm" y1="4.52cm" y2="4.36cm" /><line x1="29.2419843699cm" x2="29.6253659807cm" y1="4.36cm" y2="4.2cm" /><line x1="29.6253659807cm" x2="30.0219223988cm" y1="4.2cm" y2="4.04cm" /><line x1="30.0219223988cm" x2="30.431683494cm" y1="4.04cm" y2="3.88cm" /><line x1="30.431683494cm" x2="30.8546225802cm" y1="3.88cm" y2="3.72cm" /><line x1="30.8546225802cm" x2="31.290650831cm" y1="3.72cm" y2="3.56cm" /><line x1="31.290650831cm" x2="31.7396118715cm" y1="3.56cm" y2="3.4cm" /><line x1="31.7396118715cm" x2="32.2012766973cm" y1="3.4cm" y2="3.24cm" /><line x1="32.2012766973cm" x2="32.6753390811cm" y1="3.24cm" y2="3.08cm" /><line x1="32.6753390811cm" x2="33.1614116494cm" y1="3.08cm" y2="2.92cm" /><line x1="33.1614116494cm" x2="33.6590228115cm" y1="2.92cm" y2="2.76cm" /><line x1="33.6590228115cm" x2="34.1676147292cm" y1="2.76cm" y2="2.6cm" /><line x1="34.1676147292cm" x2="34.6865425052cm" y1="2.6cm" y2="2.44cm" /><line x1="34.6865425052cm" x2="35.2150747523cm" y1="2.44cm" y2="2.28cm" /><line x1="35.2150747523cm" x2="35.7523956762cm" y1="2.28cm" y2="2.12cm" /><line x1="35.7523956762cm" x2="36.2976087667cm" y1="2.12cm" y2="1.96cm" /><line x1="36.2976087667cm" x2="36.8497421425cm" y1="1.96cm" y2="1.8cm" /><line x1="36.8497421425cm" x2="37.4077555346cm" y1="1.8cm" y2="1.64cm" /><line x1="37.4077555346cm" x2="37.9705488139cm" y1="1.64cm" y2="1.48cm" /><line x1="37.9705488139cm" x2="38.5369718239cm" y1="1.48cm" y2="1.32cm" /><line x1="38.5369718239cm" x2="39.1058345188cm" y1="1.32cm" y2="1.16cm" /><line x1="39.1058345188cm" x2="39.6758842568cm" y1="1.16cm" y2="1.0cm" /><line x1="12.8379421284cm" x2="12.5060251586cm" y1="5.0cm" y2="4.84cm" /><line x1="12.5060251586cm" x2="12.1615072151cm" y1="4.84cm" y2="4.68cm" /><line x1="12.1615072151cm" x2="11.8041874844cm" y1="4.68cm" y2="4.52cm" /><line x1="11.8041874844cm" x2="11.4338998869cm" y1="4.52cm" y2="4.36cm" /><line x1="11.4338998869cm" x2="11.0505182761cm" y1="4.36cm" y2="4.2cm" /><line x1="11.0505182761cm" x2="10.6539618581cm" y1="4.2cm" y2="4.04cm" /><line x1="10.6539618581cm" x2="10.2442007629cm" y1="4.04cm" y2="3.88cm" /><line x1="10.2442007629cm" x2="9.82126167659cm" y1="3.88cm" y2="3.72cm" /><line x1="9.82126167659cm" x2="9.38523342588cm" y1="3.72cm" y2="3.56cm" /><line x1="9.38523342588cm" x2="8.93627238531cm" y1="3.56cm" y2="3.4cm" /><line x1="8.93627238531cm" x2="8.47460755958cm" y1="3.4cm" y2="3.24cm" /><line x1="8.47460755958cm" x2="8.00054517575cm" y1="3.24cm" y2="3.08cm" /><line x1="8.00054517575cm" x2="7.51447260741cm" y1="3.08cm" y2="2.92cm" /><line x1="7.51447260741cm" x2="7.01686144529cm" y1="2.92cm" y2="2.76cm" /><line x1="7.01686144529cm" x2="6.50826952765cm" y1="2.76cm" y2="2.6cm" /><line x1="6.50826952765cm" x2="5.98934175168cm" y1="2.6cm" y2="2.44cm" /><line x1="5.98934175168cm" x2="5.46080950457cm" y1="2.44cm" y2="2.28cm" /><line x1="5.46080950457cm" x2="4.92348858066cm" y1="2.28cm" y2="2.12cm" /><line x1="4.92348858066cm" x2="4.37827549018cm" y1="2.12cm" y2="1.96cm" /><line x1="4.37827549018cm" x2="3.82614211435cm" y1="1.96cm" y2="1.8cm" /><line x1="3.82614211435cm" x2="3.26812872224cm" y1="1.8cm" y2="1.64cm" /><line x1="3.26812872224cm" x2="2.70533544295cm" y1="1.64cm" y2="1.48cm" /><line x1="2.70533544295cm" x2="2.13891243292cm" y1="1.48cm" y2="1.32cm" /><line x1="2.13891243292cm" x2="1.57004973805cm" y1="1.32cm" y2="1.16cm" /><line x1="1.57004973805cm" x2="1.0cm" y1="1.16cm" y2="1.0cm" /><line x1="25.3379421284cm" x2="25.5592201083cm" y1="5.0cm" y2="4.84cm" /><line x1="25.5592201083cm" x2="25.7888987373cm" y1="4.84cm" y2="4.68cm" /><line x1="25.7888987373cm" x2="26.0271118911cm" y1="4.68cm" y2="4.52cm" /><line x1="26.0271118911cm" x2="26.2739702894cm" y1="4.52cm" y2="4.36cm" /><line x1="26.2739702894cm" x2="26.52955803cm" y1="4.36cm" y2="4.2cm" /><line x1="26.52955803cm" x2="26.7939289753cm" y1="4.2cm" y2="4.04cm" /><line x1="26.7939289753cm" x2="27.0671030388cm" y1="4.04cm" y2="3.88cm" /><line x1="27.0671030388cm" x2="27.3490624296cm" y1="3.88cm" y2="3.72cm" /><line x1="27.3490624296cm" x2="27.6397479301cm" y1="3.72cm" y2="3.56cm" /><line x1="27.6397479301cm" x2="27.9390552905cm" y1="3.56cm" y2="3.4cm" /><line x1="27.9390552905cm" x2="28.246831841cm" y1="3.4cm" y2="3.24cm" /><line x1="28.246831841cm" x2="28.5628734302cm" y1="3.24cm" y2="3.08cm" /><line x1="28.5628734302cm" x2="28.8869218091cm" y1="3.08cm" y2="2.92cm" /><line x1="28.8869218091cm" x2="29.2186625838cm" y1="2.92cm" y2="2.76cm" /><line x1="29.2186625838cm" x2="29.5577238623cm" y1="2.76cm" y2="2.6cm" /><line x1="29.5577238623cm" x2="29.9036757129cm" y1="2.6cm" y2="2.44cm" /><line x1="29.9036757129cm" x2="30.2560305443cm" y1="2.44cm" y2="2.28cm" /><line x1="30.2560305443cm" x2="30.6142444936cm" y1="2.28cm" y2="2.12cm" /><line x1="30.6142444936cm" x2="30.9777198872cm" y1="2.12cm" y2="1.96cm" /><line x1="30.9777198872cm" x2="31.3458088045cm" y1="1.96cm" y2="1.8cm" /><line x1="31.3458088045cm" x2="31.7178177325cm" y1="1.8cm" y2="1.64cm" /><line x1="31.7178177325cm" x2="32.0930132521cm" y1="1.64cm" y2="1.48cm" /><line x1="32.0930132521cm" x2="32.4706285921cm" y1="1.48cm" y2="1.32cm" /><line x1="32.4706285921cm" x2="32.8498703887cm" y1="1.32cm" y2="1.16cm" /><line x1="32.8498703887cm" x2="33.2299035474cm" y1="1.16cm" y2="1.0cm" /><line x1="15.3379421284cm" x2="15.1166641486cm" y1="5.0cm" y2="4.84cm" /><line x1="15.1166641486cm" x2="14.8869855196cm" y1="4.84cm" y2="4.68cm" /><line x1="14.8869855196cm" x2="14.6487723657cm" y1="4.68cm" y2="4.52cm" /><line x1="14.6487723657cm" x2="14.4019139674cm" y1="4.52cm" y2="4.36cm" /><line x1="14.4019139674cm" x2="14.1463262269cm" y1="4.36cm" y2="4.2cm" /><line x1="14.1463262269cm" x2="13.8819552815cm" y1="4.2cm" y2="4.04cm" /><line x1="13.8819552815cm" x2="13.6087812181cm" y1="4.04cm" y2="3.88cm" /><line x1="13.6087812181cm" x2="13.3268218272cm" y1="3.88cm" y2="3.72cm" /><line x1="13.3268218272cm" x2="13.0361363267cm" y1="3.72cm" y2="3.56cm" /><line x1="13.0361363267cm" x2="12.7368289663cm" y1="3.56cm" y2="3.4cm" /><line x1="12.7368289663cm" x2="12.4290524159cm" y1="3.4cm" y2="3.24cm" /><line x1="12.4290524159cm" x2="12.1130108266cm" y1="3.24cm" y2="3.08cm" /><line x1="12.1130108266cm" x2="11.7889624477cm" y1="3.08cm" y2="2.92cm" /><line x1="11.7889624477cm" x2="11.457221673cm" y1="2.92cm" y2="2.76cm" /><line x1="11.457221673cm" x2="11.1181603946cm" y1="2.76cm" y2="2.6cm" /><line x1="11.1181603946cm" x2="10.7722085439cm" y1="2.6cm" y2="2.44cm" /><line x1="10.7722085439cm" x2="10.4198537125cm" y1="2.44cm" y2="2.28cm" /><line x1="10.4198537125cm" x2="10.0616397632cm" y1="2.28cm" y2="2.12cm" /><line x1="10.0616397632cm" x2="9.6981643696cm" y1="2.12cm" y2="1.96cm" /><line x1="9.6981643696cm" x2="9.33007545238cm" y1="1.96cm" y2="1.8cm" /><line x1="9.33007545238cm" x2="8.9580665243cm" y1="1.8cm" y2="1.64cm" /><line x1="8.9580665243cm" x2="8.58287100477cm" y1="1.64cm" y2="1.48cm" /><line x1="8.58287100477cm" x2="8.20525566475cm" y1="1.48cm" y2="1.32cm" /><line x1="8.20525566475cm" x2="7.82601386817cm" y1="1.32cm" y2="1.16cm" /><line x1="7.82601386817cm" x2="7.44598070947cm" y1="1.16cm" y2="1.0cm" /><line x1="22.8379421284cm" x2="22.9485811184cm" y1="5.0cm" y2="4.84cm" /><line x1="22.9485811184cm" x2="23.0634204329cm" y1="4.84cm" y2="4.68cm" /><line x1="23.0634204329cm" x2="23.1825270098cm" y1="4.68cm" y2="4.52cm" /><line x1="23.1825270098cm" x2="23.3059562089cm" y1="4.52cm" y2="4.36cm" /><line x1="23.3059562089cm" x2="23.4337500792cm" y1="4.36cm" y2="4.2cm" /><line x1="23.4337500792cm" x2="23.5659355519cm" y1="4.2cm" y2="4.04cm" /><line x1="23.5659355519cm" x2="23.7025225836cm" y1="4.04cm" y2="3.88cm" /><line x1="23.7025225836cm" x2="23.843502279cm" y1="3.88cm" y2="3.72cm" /><line x1="23.843502279cm" x2="23.9888450293cm" y1="3.72cm" y2="3.56cm" /><line x1="23.9888450293cm" x2="24.1384987095cm" y1="3.56cm" y2="3.4cm" /><line x1="24.1384987095cm" x2="24.2923869847cm" y1="3.4cm" y2="3.24cm" /><line x1="24.2923869847cm" x2="24.4504077793cm" y1="3.24cm" y2="3.08cm" /><line x1="24.4504077793cm" x2="24.6124319688cm" y1="3.08cm" y2="2.92cm" /><line x1="24.6124319688cm" x2="24.7783023561cm" y1="2.92cm" y2="2.76cm" /><line x1="24.7783023561cm" x2="24.9478329953cm" y1="2.76cm" y2="2.6cm" /><line x1="24.9478329953cm" x2="25.1208089207cm" y1="2.6cm" y2="2.44cm" /><line x1="25.1208089207cm" x2="25.2969863364cm" y1="2.44cm" y2="2.28cm" /><line x1="25.2969863364cm" x2="25.476093311cm" y1="2.28cm" y2="2.12cm" /><line x1="25.476093311cm" x2="25.6578310078cm" y1="2.12cm" y2="1.96cm" /><line x1="25.6578310078cm" x2="25.8418754664cm" y1="1.96cm" y2="1.8cm" /><line x1="25.8418754664cm" x2="26.0278799305cm" y1="1.8cm" y2="1.64cm" /><line x1="26.0278799305cm" x2="26.2154776902cm" y1="1.64cm" y2="1.48cm" /><line x1="26.2154776902cm" x2="26.4042853603cm" y1="1.48cm" y2="1.32cm" /><line x1="26.4042853603cm" x2="26.5939062585cm" y1="1.32cm" y2="1.16cm" /><line x1="26.5939062585cm" x2="26.7839228379cm" y1="1.16cm" y2="1.0cm" /><line x1="17.8379421284cm" x2="17.7273031385cm" y1="5.0cm" y2="4.84cm" /><line x1="17.7273031385cm" x2="17.612463824cm" y1="4.84cm" y2="4.68cm" /><line x1="17.612463824cm" x2="17.4933572471cm" y1="4.68cm" y2="4.52cm" /><line x1="17.4933572471cm" x2="17.3699280479cm" y1="4.52cm" y2="4.36cm" /><line x1="17.3699280479cm" x2="17.2421341776cm" y1="4.36cm" y2="4.2cm" /><line x1="17.2421341776cm" x2="17.109948705cm" y1="4.2cm" y2="4.04cm" /><line x1="17.109948705cm" x2="16.9733616732cm" y1="4.04cm" y2="3.88cm" /><line x1="16.9733616732cm" x2="16.8323819778cm" y1="3.88cm" y2="3.72cm" /><line x1="16.8323819778cm" x2="16.6870392276cm" y1="3.72cm" y2="3.56cm" /><line x1="16.6870392276cm" x2="16.5373855474cm" y1="3.56cm" y2="3.4cm" /><line x1="16.5373855474cm" x2="16.3834972721cm" y1="3.4cm" y2="3.24cm" /><line x1="16.3834972721cm" x2="16.2254764775cm" y1="3.24cm" y2="3.08cm" /><line x1="16.2254764775cm" x2="16.0634522881cm" y1="3.08cm" y2="2.92cm" /><line x1="16.0634522881cm" x2="15.8975819007cm" y1="2.92cm" y2="2.76cm" /><line x1="15.8975819007cm" x2="15.7280512615cm" y1="2.76cm" y2="2.6cm" /><line x1="15.7280512615cm" x2="15.5550753362cm" y1="2.6cm" y2="2.44cm" /><line x1="15.5550753362cm" x2="15.3788979205cm" y1="2.44cm" y2="2.28cm" /><line x1="15.3788979205cm" x2="15.1997909458cm" y1="2.28cm" y2="2.12cm" /><line x1="15.1997909458cm" x2="15.018053249cm" y1="2.12cm" y2="1.96cm" /><line x1="15.018053249cm" x2="14.8340087904cm" y1="1.96cm" y2="1.8cm" /><line x1="14.8340087904cm" x2="14.6480043264cm" y1="1.8cm" y2="1.64cm" /><line x1="14.6480043264cm" x2="14.4604065666cm" y1="1.64cm" y2="1.48cm" /><line x1="14.4604065666cm" x2="14.2715988966cm" y1="1.48cm" y2="1.32cm" /><line x1="14.2715988966cm" x2="14.0819779983cm" y1="1.32cm" y2="1.16cm" /><line x1="14.0819779983cm" x2="13.8919614189cm" y1="1.16cm" y2="1.0cm" /><line x1="21.5879421284cm" x2="21.6432616234cm" y1="5.0cm" y2="4.84cm" /><line x1="21.6432616234cm" x2="21.7006812806cm" y1="4.84cm" y2="4.68cm" /><line x1="21.7006812806cm" x2="21.7602345691cm" y1="4.68cm" y2="4.52cm" /><line x1="21.7602345691cm" x2="21.8219491687cm" y1="4.52cm" y2="4.36cm" /><line x1="21.8219491687cm" x2="21.8858461038cm" y1="4.36cm" y2="4.2cm" /><line x1="21.8858461038cm" x2="21.9519388401cm" y1="4.2cm" y2="4.04cm" /><line x1="21.9519388401cm" x2="22.020232356cm" y1="4.04cm" y2="3.88cm" /><line x1="22.020232356cm" x2="22.0907222037cm" y1="3.88cm" y2="3.72cm" /><line x1="22.0907222037cm" x2="22.1633935788cm" y1="3.72cm" y2="3.56cm" /><line x1="22.1633935788cm" x2="22.2382204189cm" y1="3.56cm" y2="3.4cm" /><line x1="22.2382204189cm" x2="22.3151645566cm" y1="3.4cm" y2="3.24cm" /><line x1="22.3151645566cm" x2="22.3941749539cm" y1="3.24cm" y2="3.08cm" /><line x1="22.3941749539cm" x2="22.4751870486cm" y1="3.08cm" y2="2.92cm" /><line x1="22.4751870486cm" x2="22.5581222423cm" y1="2.92cm" y2="2.76cm" /><line x1="22.5581222423cm" x2="22.6428875619cm" y1="2.76cm" y2="2.6cm" /><line x1="22.6428875619cm" x2="22.7293755245cm" y1="2.6cm" y2="2.44cm" /><line x1="22.7293755245cm" x2="22.8174642324cm" y1="2.44cm" y2="2.28cm" /><line x1="22.8174642324cm" x2="22.9070177197cm" y1="2.28cm" y2="2.12cm" /><line x1="22.9070177197cm" x2="22.9978865681cm" y1="2.12cm" y2="1.96cm" /><line x1="22.9978865681cm" x2="23.0899087974cm" y1="1.96cm" y2="1.8cm" /><line x1="23.0899087974cm" x2="23.1829110294cm" y1="1.8cm" y2="1.64cm" /><line x1="23.1829110294cm" x2="23.2767099093cm" y1="1.64cm" y2="1.48cm" /><line x1="23.2767099093cm" x2="23.3711137443cm" y1="1.48cm" y2="1.32cm" /><line x1="23.3711137443cm" x2="23.4659241935cm" y1="1.32cm" y2="1.16cm" /><line x1="23.4659241935cm" x2="23.5609324832cm" y1="1.16cm" y2="1.0cm" /><line x1="19.0879421284cm" x2="19.0326226335cm" y1="5.0cm" y2="4.84cm" /><line x1="19.0326226335cm" x2="18.9752029762cm" y1="4.84cm" y2="4.68cm" /><line x1="18.9752029762cm" x2="18.9156496877cm" y1="4.68cm" y2="4.52cm" /><line x1="18.9156496877cm" x2="18.8539350882cm" y1="4.52cm" y2="4.36cm" /><line x1="18.8539350882cm" x2="18.790038153cm" y1="4.36cm" y2="4.2cm" /><line x1="18.790038153cm" x2="18.7239454167cm" y1="4.2cm" y2="4.04cm" /><line x1="18.7239454167cm" x2="18.6556519008cm" y1="4.04cm" y2="3.88cm" /><line x1="18.6556519008cm" x2="18.5851620531cm" y1="3.88cm" y2="3.72cm" /><line x1="18.5851620531cm" x2="18.512490678cm" y1="3.72cm" y2="3.56cm" /><line x1="18.512490678cm" x2="18.4376638379cm" y1="3.56cm" y2="3.4cm" /><line x1="18.4376638379cm" x2="18.3607197003cm" y1="3.4cm" y2="3.24cm" /><line x1="18.3607197003cm" x2="18.281709303cm" y1="3.24cm" y2="3.08cm" /><line x1="18.281709303cm" x2="18.2006972083cm" y1="3.08cm" y2="2.92cm" /><line x1="18.2006972083cm" x2="18.1177620146cm" y1="2.92cm" y2="2.76cm" /><line x1="18.1177620146cm" x2="18.032996695cm" y1="2.76cm" y2="2.6cm" /><line x1="18.032996695cm" x2="17.9465087323cm" y1="2.6cm" y2="2.44cm" /><line x1="17.9465087323cm" x2="17.8584200244cm" y1="2.44cm" y2="2.28cm" /><line x1="17.8584200244cm" x2="17.7688665371cm" y1="2.28cm" y2="2.12cm" /><line x1="17.7688665371cm" x2="17.6779976887cm" y1="2.12cm" y2="1.96cm" /><line x1="17.6779976887cm" x2="17.5859754594cm" y1="1.96cm" y2="1.8cm" /><line x1="17.5859754594cm" x2="17.4929732274cm" y1="1.8cm" y2="1.64cm" /><line x1="17.4929732274cm" x2="17.3991743475cm" y1="1.64cm" y2="1.48cm" /><line x1="17.3991743475cm" x2="17.3047705125cm" y1="1.48cm" y2="1.32cm" /><line x1="17.3047705125cm" x2="17.2099600634cm" y1="1.32cm" y2="1.16cm" /><line x1="17.2099600634cm" x2="17.1149517737cm" y1="1.16cm" y2="1.0cm" /></g><text x="27.8379421284cm" y="5.3cm">75km</text><text x="12.8379421284cm" y="5.3cm">75km</text><text x="25.3379421284cm" y="5.3cm">50km</text><text x="15.3379421284cm" y="5.3cm">50km</text><text x="22.8379421284cm" y="5.3cm">25km</text><text x="17.8379421284cm" y="5.3cm">25km</text><g id="horizontal_tick" stroke="black"><line x1="20.3379421284cm" x2="39.6758842568cm" y1="5.0cm" y2="5.0cm" /><line x1="1.0cm" x2="20.3379421284cm" y1="5.0cm" y2="5.0cm" /><line x1="20.3379421284cm" x2="39.6758842568cm" y1="4.6383363472cm" y2="4.6383363472cm" /><line x1="1.0cm" x2="20.3379421284cm" y1="4.6383363472cm" y2="4.6383363472cm" /><line x1="20.3379421284cm" x2="39.6758842568cm" y1="4.27667269439cm" y2="4.27667269439cm" /><line x1="1.0cm" x2="20.3379421284cm" y1="4.27667269439cm" y2="4.27667269439cm" /><line x1="20.3379421284cm" x2="39.6758842568cm" y1="3.91500904159cm" y2="3.91500904159cm" /><line x1="1.0cm" x2="20.3379421284cm" y1="3.91500904159cm" y2="3.91500904159cm" /><line x1="20.3379421284cm" x2="39.6758842568cm" y1="3.55334538879cm" y2="3.55334538879cm" /><line x1="1.0cm" x2="20.3379421284cm" y1="3.55334538879cm" y2="3.55334538879cm" /><line x1="20.3379421284cm" x2="39.6758842568cm" y1="3.19168173599cm" y2="3.19168173599cm" /><line x1="1.0cm" x2="20.3379421284cm" y1="3.19168173599cm" y2="3.19168173599cm" /><line x1="20.3379421284cm" x2="39.6758842568cm" y1="2.83001808318cm" y2="2.83001808318cm" /><line x1="1.0cm" x2="20.3379421284cm" y1="2.83001808318cm" y2="2.83001808318cm" /><line x1="20.3379421284cm" x2="39.6758842568cm" y1="2.46835443038cm" y2="2.46835443038cm" /><line x1="1.0cm" x2="20.3379421284cm" y1="2.46835443038cm" y2="2.46835443038cm" /><line x1="20.3379421284cm" x2="39.6758842568cm" y1="2.10669077758cm" y2="2.10669077758cm" /><line x1="1.0cm" x2="20.3379421284cm" y1="2.10669077758cm" y2="2.10669077758cm" /><line x1="20.3379421284cm" x2="39.6758842568cm" y1="1.74502712477cm" y2="1.74502712477cm" /><line x1="1.0cm" x2="20.3379421284cm" y1="1.74502712477cm" y2="1.74502712477cm" /><line x1="20.3379421284cm" x2="39.6758842568cm" y1="1.38336347197cm" y2="1.38336347197cm" /><line x1="1.0cm" x2="20.3379421284cm" y1="1.38336347197cm" y2="1.38336347197cm" /><line x1="20.3379421284cm" x2="39.6758842568cm" y1="1.0cm" y2="1.0cm" /><line x1="1.0cm" x2="20.3379421284cm" y1="1.0cm" y2="1.0cm" /></g></svg>