<?xml version="1.0" encoding="utf-8" ?>
<svg baseProfile="full" height="4cm" version="1.1" width="32.0cm" xmlns="http://www.w3.org/2000/svg" xmlns:ev="http://www.w3.org/2001/xml-events" xmlns:xlink="http://www.w3.org/1999/xlink"><defs /><g font-size="10"><text x="30.1cm" y="0.0cm">55.3°</text><text x="0.0cm" y="0.0cm">55.3°</text><text x="30.1cm" y="0.361663652803cm">50.0°</text><text x="0.0cm" y="0.361663652803cm">50.0°</text><text x="30.1cm" y="0.723327305606cm">45.0°</text><text x="0.0cm" y="0.723327305606cm">45.0°</text><text x="30.1cm" y="1.08499095841cm">40.0°</text><text x="0.0cm" y="1.08499095841cm">40.0°</text><text x="30.1cm" y="1.44665461121cm">35.0°</text><text x="0.0cm" y="1.44665461121cm">35.0°</text><text x="30.1cm" y="1.80831826401cm">30.0°</text><text x="0.0cm" y="1.80831826401cm">30.0°</text><text x="30.1cm" y="2.16998191682cm">25.0°</text><text x="0.0cm" y="2.16998191682cm">25.0°</text><text x="30.1cm" y="2.53164556962cm">20.0°</text><text x="0.0cm" y="2.53164556962cm">20.0°</text><text x="30.1cm" y="2.89330922242cm">15.0°</text><text x="0.0cm" y="2.89330922242cm">15.0°</text><text x="30.1cm" y="3.25497287523cm">10.0°</text><text x="0.0cm" y="3.25497287523cm">10.0°</text><text x="30.1cm" y="3.61663652803cm">5.0°</text><text x="0.0cm" y="3.61663652803cm">5.0°</text><text x="30.1cm" y="4.0cm">0.0°</text><text x="0.0cm" y="4.0cm">0.0°</text></g><g id="vertical" stroke="black"><line x1="16.0cm" x2="16.0cm" y1="0.0cm" y2="0.16cm" /><line x1="16.0cm" x2="16.0cm" y1="0.16cm" y2="0.32cm" /><line x1="16.0cm" x2="16.0cm" y1="0.32cm" y2="0.48cm" /><line x1="16.0cm" x2="16.0cm" y1="0.48cm" y2="0.64cm" /><line x1="16.0cm" x2="16.0cm" y1="0.64cm" y2="0.8cm" /><line x1="16.0cm" x2="16.0cm" y1="0.8cm" y2="0.96cm" /><line x1="16.0cm" x2="16.0cm" y1="0.96cm" y2="1.12cm" /><line x1="16.0cm" x2="16.0cm" y1="1.12cm" y2="1.28cm" /><line x1="16.0cm" x2="16.0cm" y1="1.28cm" y2="1.44cm" /><line x1="16.0cm" x2="16.0cm" y1="1.44cm" y2="1.6cm" /><line x1="16.0cm" x2="16.0cm" y1="1.6cm" y2="1.76cm" /><line x1="16.0cm" x2="16.0cm" y1="1.76cm" y2="1.92cm" /><line x1="16.0cm" x2="16.0cm" y1="1.92cm" y2="2.08cm" /><line x1="16.0cm" x2="16.0cm" y1="2.08cm" y2="2.24cm" /><line x1="16.0cm" x2="16.0cm" y1="2.24cm" y2="2.4cm" /><line x1="16.0cm" x2="16.0cm" y1="2.4cm" y2="2.56cm" /><line x1="16.0cm" x2="16.0cm" y1="2.56cm" y2="2.72cm" /><line x1="16.0cm" x2="16.0cm" y1="2.72cm" y2="2.88cm" /><line x1="16.0cm" x2="16.0cm" y1="2.88cm" y2="3.04cm" /><line x1="16.0cm" x2="16.0cm" y1="3.04cm" y2="3.2cm" /><line x1="16.0cm" x2="16.0cm" y1="3.2cm" y2="3.36cm" /><line x1="16.0cm" x2="16.0cm" y1="3.36cm" y2="3.52cm" /><line x1="16.0cm" x2="16.0cm" y1="3.52cm" y2="3.68cm" /><line x1="16.0cm" x2="16.0cm" y1="3.68cm" y2="3.84cm" /><line x1="16.0cm" x2="16.0cm" y1="3.84cm" y2="4.0cm" /></g><g id="maxextents" stroke="black"><line x1="21.8175786882cm" x2="21.9942798936cm" y1="4.0cm" y2="3.84cm" /><line x1="21.9942798936cm" x2="22.1816482462cm" y1="3.84cm" y2="3.68cm" /><line x1="22.1816482462cm" x2="22.380225114cm" y1="3.68cm" y2="3.52cm" /><line x1="22.380225114cm" x2="22.5905817084cm" y1="3.52cm" y2="3.36cm" /><line x1="22.5905817084cm" x2="22.8133092639cm" y1="3.36cm" y2="3.2cm" /><line x1="22.8133092639cm" x2="23.0490194156cm" y1="3.2cm" y2="3.04cm" /><line x1="23.0490194156cm" x2="23.2983450014cm" y1="3.04cm" y2="2.88cm" /><line x1="23.2983450014cm" x2="23.5619410571cm" y1="2.88cm" y2="2.72cm" /><line x1="23.5619410571cm" x2="23.840485974cm" y1="2.72cm" y2="2.56cm" /><line x1="23.840485974cm" x2="24.1346828119cm" y1="2.56cm" y2="2.4cm" /><line x1="24.1346828119cm" x2="24.445260762cm" y1="2.4cm" y2="2.24cm" /><line x1="24.445260762cm" x2="24.772976753cm" y1="2.24cm" y2="2.08cm" /><line x1="24.772976753cm" x2="25.1186171955cm" y1="2.08cm" y2="1.92cm" /><line x1="25.1186171955cm" x2="25.4829998553cm" y1="1.92cm" y2="1.76cm" /><line x1="25.4829998553cm" x2="25.8669758496cm" y1="1.76cm" y2="1.6cm" /><line x1="25.8669758496cm" x2="26.2714317577cm" y1="1.6cm" y2="1.44cm" /><line x1="26.2714317577cm" x2="26.6972918418cm" y1="1.44cm" y2="1.28cm" /><line x1="26.6972918418cm" x2="27.1455203701cm" y1="1.28cm" y2="1.12cm" /><line x1="27.1455203701cm" x2="27.6171240399cm" y1="1.12cm" y2="0.96cm" /><line x1="27.6171240399cm" x2="28.1131544968cm" y1="0.96cm" y2="0.8cm" /><line x1="28.1131544968cm" x2="28.6347109491cm" y1="0.8cm" y2="0.64cm" /><line x1="28.6347109491cm" x2="29.1829428772cm" y1="0.64cm" y2="0.48cm" /><line x1="29.1829428772cm" x2="29.7590528382cm" y1="0.48cm" y2="0.32cm" /><line x1="29.7590528382cm" x2="30.3642993706cm" y1="0.32cm" y2="0.16cm" /><line x1="30.3642993706cm" x2="31.0cm" y1="0.16cm" y2="0.0cm" /><line x1="10.1824213118cm" x2="10.0057201064cm" y1="4.0cm" y2="3.84cm" /><line x1="10.0057201064cm" x2="9.81835175379cm" y1="3.84cm" y2="3.68cm" /><line x1="9.81835175379cm" x2="9.61977488599cm" y1="3.68cm" y2="3.52cm" /><line x1="9.61977488599cm" x2="9.40941829163cm" y1="3.52cm" y2="3.36cm" /><line x1="9.40941829163cm" x2="9.18669073607cm" y1="3.36cm" y2="3.2cm" /><line x1="9.18669073607cm" x2="8.95098058436cm" y1="3.2cm" y2="3.04cm" /><line x1="8.95098058436cm" x2="8.70165499857cm" y1="3.04cm" y2="2.88cm" /><line x1="8.70165499857cm" x2="8.43805894292cm" y1="2.88cm" y2="2.72cm" /><line x1="8.43805894292cm" x2="8.15951402603cm" y1="2.72cm" y2="2.56cm" /><line x1="8.15951402603cm" x2="7.86531718808cm" y1="2.56cm" y2="2.4cm" /><line x1="7.86531718808cm" x2="7.55473923805cm" y1="2.4cm" y2="2.24cm" /><line x1="7.55473923805cm" x2="7.22702324705cm" y1="2.24cm" y2="2.08cm" /><line x1="7.22702324705cm" x2="6.88138280453cm" y1="2.08cm" y2="1.92cm" /><line x1="6.88138280453cm" x2="6.51700014467cm" y1="1.92cm" y2="1.76cm" /><line x1="6.51700014467cm" x2="6.13302415043cm" y1="1.76cm" y2="1.6cm" /><line x1="6.13302415043cm" x2="5.72856824231cm" y1="1.6cm" y2="1.44cm" /><line x1="5.72856824231cm" x2="5.30270815821cm" y1="1.44cm" y2="1.28cm" /><line x1="5.30270815821cm" x2="4.85447962992cm" y1="1.28cm" y2="1.12cm" /><line x1="4.85447962992cm" x2="4.38287596015cm" y1="1.12cm" y2="0.96cm" /><line x1="4.38287596015cm" x2="3.88684550324cm" y1="0.96cm" y2="0.8cm" /><line x1="3.88684550324cm" x2="3.36528905087cm" y1="0.8cm" y2="0.64cm" /><line x1="3.36528905087cm" x2="2.81705712285cm" y1="0.64cm" y2="0.48cm" /><line x1="2.81705712285cm" x2="2.24094716182cm" y1="0.48cm" y2="0.32cm" /><line x1="2.24094716182cm" x2="1.63570062939cm" y1="0.32cm" y2="0.16cm" /><line x1="1.63570062939cm" x2="1.0cm" y1="0.16cm" y2="0.0cm" /></g><g id="vertical_ticks" stroke="black"><line x1="17.9391928961cm" x2="17.9980932979cm" y1="4.0cm" y2="3.84cm" /><line x1="17.9980932979cm" x2="18.0605494154cm" y1="3.84cm" y2="3.68cm" /><line x1="18.0605494154cm" x2="18.1267417047cm" y1="3.68cm" y2="3.52cm" /><line x1="18.1267417047cm" x2="18.1968605695cm" y1="3.52cm" y2="3.36cm" /><line x1="18.1968605695cm" x2="18.271103088cm" y1="3.36cm" y2="3.2cm" /><line x1="18.271103088cm" x2="18.3496731385cm" y1="3.2cm" y2="3.04cm" /><line x1="18.3496731385cm" x2="18.4327816671cm" y1="3.04cm" y2="2.88cm" /><line x1="18.4327816671cm" x2="18.520647019cm" y1="2.88cm" y2="2.72cm" /><line x1="18.520647019cm" x2="18.6134953247cm" y1="2.72cm" y2="2.56cm" /><line x1="18.6134953247cm" x2="18.7115609373cm" y1="2.56cm" y2="2.4cm" /><line x1="18.7115609373cm" x2="18.8150869207cm" y1="2.4cm" y2="2.24cm" /><line x1="18.8150869207cm" x2="18.9243255843cm" y1="2.24cm" y2="2.08cm" /><line x1="18.9243255843cm" x2="19.0395390652cm" y1="2.08cm" y2="1.92cm" /><line x1="19.0395390652cm" x2="19.1609999518cm" y1="1.92cm" y2="1.76cm" /><line x1="19.1609999518cm" x2="19.2889919499cm" y1="1.76cm" y2="1.6cm" /><line x1="19.2889919499cm" x2="19.4238105859cm" y1="1.6cm" y2="1.44cm" /><line x1="19.4238105859cm" x2="19.5657639473cm" y1="1.44cm" y2="1.28cm" /><line x1="19.5657639473cm" x2="19.7151734567cm" y1="1.28cm" y2="1.12cm" /><line x1="19.7151734567cm" x2="19.87237468cm" y1="1.12cm" y2="0.96cm" /><line x1="19.87237468cm" x2="20.0377181656cm" y1="0.96cm" y2="0.8cm" /><line x1="20.0377181656cm" x2="20.2115703164cm" y1="0.8cm" y2="0.64cm" /><line x1="20.2115703164cm" x2="20.3943142924cm" y1="0.64cm" y2="0.48cm" /><line x1="20.3943142924cm" x2="20.5863509461cm" y1="0.48cm" y2="0.32cm" /><line x1="20.5863509461cm" x2="20.7880997902cm" y1="0.32cm" y2="0.16cm" /><line x1="20.7880997902cm" x2="21.0cm" y1="0.16cm" y2="0.0cm" /><line x1="14.0608071039cm" x2="14.0019067021cm" y1="4.0cm" y2="3.84cm" /><line x1="14.0019067021cm" x2="13.9394505846cm" y1="3.84cm" y2="3.68cm" /><line x1="13.9394505846cm" x2="13.8732582953cm" y1="3.68cm" y2="3.52cm" /><line x1="13.8732582953cm" x2="13.8031394305cm" y1="3.52cm" y2="3.36cm" /><line x1="13.8031394305cm" x2="13.728896912cm" y1="3.36cm" y2="3.2cm" /><line x1="13.728896912cm" x2="13.6503268615cm" y1="3.2cm" y2="3.04cm" /><line x1="13.6503268615cm" x2="13.5672183329cm" y1="3.04cm" y2="2.88cm" /><line x1="13.5672183329cm" x2="13.479352981cm" y1="2.88cm" y2="2.72cm" /><line x1="13.479352981cm" x2="13.3865046753cm" y1="2.72cm" y2="2.56cm" /><line x1="13.3865046753cm" x2="13.2884390627cm" y1="2.56cm" y2="2.4cm" /><line x1="13.2884390627cm" x2="13.1849130793cm" y1="2.4cm" y2="2.24cm" /><line x1="13.1849130793cm" x2="13.0756744157cm" y1="2.24cm" y2="2.08cm" /><line x1="13.0756744157cm" x2="12.9604609348cm" y1="2.08cm" y2="1.92cm" /><line x1="12.9604609348cm" x2="12.8390000482cm" y1="1.92cm" y2="1.76cm" /><line x1="12.8390000482cm" x2="12.7110080501cm" y1="1.76cm" y2="1.6cm" /><line x1="12.7110080501cm" x2="12.5761894141cm" y1="1.6cm" y2="1.44cm" /><line x1="12.5761894141cm" x2="12.4342360527cm" y1="1.44cm" y2="1.28cm" /><line x1="12.4342360527cm" x2="12.2848265433cm" y1="1.28cm" y2="1.12cm" /><line x1="12.2848265433cm" x2="12.12762532cm" y1="1.12cm" y2="0.96cm" /><line x1="12.12762532cm" x2="11.9622818344cm" y1="0.96cm" y2="0.8cm" /><line x1="11.9622818344cm" x2="11.7884296836cm" y1="0.8cm" y2="0.64cm" /><line x1="11.7884296836cm" x2="11.6056857076cm" y1="0.64cm" y2="0.48cm" /><line x1="11.6056857076cm" x2="11.4136490539cm" y1="0.48cm" y2="0.32cm" /><line x1="11.4136490539cm" x2="11.2119002098cm" y1="0.32cm" y2="0.16cm" /><line x1="11.2119002098cm" x2="11.0cm" y1="0.16cm" y2="0.0cm" /><line x1="19.8783857921cm" x2="19.9961865957cm" y1="4.0cm" y2="3.84cm" /><line x1="19.9961865957cm" x2="20.1210988308cm" y1="3.84cm" y2="3.68cm" /><line x1="20.1210988308cm" x2="20.2534834093cm" y1="3.68cm" y2="3.52cm" /><line x1="20.2534834093cm" x2="20.3937211389cm" y1="3.52cm" y2="3.36cm" /><line x1="20.3937211389cm" x2="20.542206176cm" y1="3.36cm" y2="3.2cm" /><line x1="20.542206176cm" x2="20.6993462771cm" y1="3.2cm" y2="3.04cm" /><line x1="20.6993462771cm" x2="20.8655633343cm" y1="3.04cm" y2="2.88cm" /><line x1="20.8655633343cm" x2="21.0412940381cm" y1="2.88cm" y2="2.72cm" /><line x1="21.0412940381cm" x2="21.2269906493cm" y1="2.72cm" y2="2.56cm" /><line x1="21.2269906493cm" x2="21.4231218746cm" y1="2.56cm" y2="2.4cm" /><line x1="21.4231218746cm" x2="21.6301738413cm" y1="2.4cm" y2="2.24cm" /><line x1="21.6301738413cm" x2="21.8486511686cm" y1="2.24cm" y2="2.08cm" /><line x1="21.8486511686cm" x2="22.0790781303cm" y1="2.08cm" y2="1.92cm" /><line x1="22.0790781303cm" x2="22.3219999036cm" y1="1.92cm" y2="1.76cm" /><line x1="22.3219999036cm" x2="22.5779838997cm" y1="1.76cm" y2="1.6cm" /><line x1="22.5779838997cm" x2="22.8476211718cm" y1="1.6cm" y2="1.44cm" /><line x1="22.8476211718cm" x2="23.1315278945cm" y1="1.44cm" y2="1.28cm" /><line x1="23.1315278945cm" x2="23.4303469134cm" y1="1.28cm" y2="1.12cm" /><line x1="23.4303469134cm" x2="23.7447493599cm" y1="1.12cm" y2="0.96cm" /><line x1="23.7447493599cm" x2="24.0754363312cm" y1="0.96cm" y2="0.8cm" /><line x1="24.0754363312cm" x2="24.4231406328cm" y1="0.8cm" y2="0.64cm" /><line x1="24.4231406328cm" x2="24.7886285848cm" y1="0.64cm" y2="0.48cm" /><line x1="24.7886285848cm" x2="25.1727018921cm" y1="0.48cm" y2="0.32cm" /><line x1="25.1727018921cm" x2="25.5761995804cm" y1="0.32cm" y2="0.16cm" /><line x1="25.5761995804cm" x2="26.0cm" y1="0.16cm" y2="0.0cm" /><line x1="12.1216142079cm" x2="12.0038134043cm" y1="4.0cm" y2="3.84cm" /><line x1="12.0038134043cm" x2="11.8789011692cm" y1="3.84cm" y2="3.68cm" /><line x1="11.8789011692cm" x2="11.7465165907cm" y1="3.68cm" y2="3.52cm" /><line x1="11.7465165907cm" x2="11.6062788611cm" y1="3.52cm" y2="3.36cm" /><line x1="11.6062788611cm" x2="11.457793824cm" y1="3.36cm" y2="3.2cm" /><line x1="11.457793824cm" x2="11.3006537229cm" y1="3.2cm" y2="3.04cm" /><line x1="11.3006537229cm" x2="11.1344366657cm" y1="3.04cm" y2="2.88cm" /><line x1="11.1344366657cm" x2="10.9587059619cm" y1="2.88cm" y2="2.72cm" /><line x1="10.9587059619cm" x2="10.7730093507cm" y1="2.72cm" y2="2.56cm" /><line x1="10.7730093507cm" x2="10.5768781254cm" y1="2.56cm" y2="2.4cm" /><line x1="10.5768781254cm" x2="10.3698261587cm" y1="2.4cm" y2="2.24cm" /><line x1="10.3698261587cm" x2="10.1513488314cm" y1="2.24cm" y2="2.08cm" /><line x1="10.1513488314cm" x2="9.92092186968cm" y1="2.08cm" y2="1.92cm" /><line x1="9.92092186968cm" x2="9.67800009645cm" y1="1.92cm" y2="1.76cm" /><line x1="9.67800009645cm" x2="9.42201610029cm" y1="1.76cm" y2="1.6cm" /><line x1="9.42201610029cm" x2="9.1523788282cm" y1="1.6cm" y2="1.44cm" /><line x1="9.1523788282cm" x2="8.86847210548cm" y1="1.44cm" y2="1.28cm" /><line x1="8.86847210548cm" x2="8.56965308661cm" y1="1.28cm" y2="1.12cm" /><line x1="8.56965308661cm" x2="8.2552506401cm" y1="1.12cm" y2="0.96cm" /><line x1="8.2552506401cm" x2="7.92456366883cm" y1="0.96cm" y2="0.8cm" /><line x1="7.92456366883cm" x2="7.57685936725cm" y1="0.8cm" y2="0.64cm" /><line x1="7.57685936725cm" x2="7.21137141523cm" y1="0.64cm" y2="0.48cm" /><line x1="7.21137141523cm" x2="6.82729810788cm" y1="0.48cm" y2="0.32cm" /><line x1="6.82729810788cm" x2="6.42380041959cm" y1="0.32cm" y2="0.16cm" /><line x1="6.42380041959cm" x2="6.0cm" y1="0.16cm" y2="0.0cm" /><line x1="16.969596448cm" x2="16.9990466489cm" y1="4.0cm" y2="3.84cm" /><line x1="16.9990466489cm" x2="17.0302747077cm" y1="3.84cm" y2="3.68cm" /><line x1="17.0302747077cm" x2="17.0633708523cm" y1="3.68cm" y2="3.52cm" /><line x1="17.0633708523cm" x2="17.0984302847cm" y1="3.52cm" y2="3.36cm" /><line x1="17.0984302847cm" x2="17.135551544cm" y1="3.36cm" y2="3.2cm" /><line x1="17.135551544cm" x2="17.1748365693cm" y1="3.2cm" y2="3.04cm" /><line x1="17.1748365693cm" x2="17.2163908336cm" y1="3.04cm" y2="2.88cm" /><line x1="17.2163908336cm" x2="17.2603235095cm" y1="2.88cm" y2="2.72cm" /><line x1="17.2603235095cm" x2="17.3067476623cm" y1="2.72cm" y2="2.56cm" /><line x1="17.3067476623cm" x2="17.3557804687cm" y1="2.56cm" y2="2.4cm" /><line x1="17.3557804687cm" x2="17.4075434603cm" y1="2.4cm" y2="2.24cm" /><line x1="17.4075434603cm" x2="17.4621627922cm" y1="2.24cm" y2="2.08cm" /><line x1="17.4621627922cm" x2="17.5197695326cm" y1="2.08cm" y2="1.92cm" /><line x1="17.5197695326cm" x2="17.5804999759cm" y1="1.92cm" y2="1.76cm" /><line x1="17.5804999759cm" x2="17.6444959749cm" y1="1.76cm" y2="1.6cm" /><line x1="17.6444959749cm" x2="17.7119052929cm" y1="1.6cm" y2="1.44cm" /><line x1="17.7119052929cm" x2="17.7828819736cm" y1="1.44cm" y2="1.28cm" /><line x1="17.7828819736cm" x2="17.8575867283cm" y1="1.28cm" y2="1.12cm" /><line x1="17.8575867283cm" x2="17.93618734cm" y1="1.12cm" y2="0.96cm" /><line x1="17.93618734cm" x2="18.0188590828cm" y1="0.96cm" y2="0.8cm" /><line x1="18.0188590828cm" x2="18.1057851582cm" y1="0.8cm" y2="0.64cm" /><line x1="18.1057851582cm" x2="18.1971571462cm" y1="0.64cm" y2="0.48cm" /><line x1="18.1971571462cm" x2="18.293175473cm" y1="0.48cm" y2="0.32cm" /><line x1="18.293175473cm" x2="18.3940498951cm" y1="0.32cm" y2="0.16cm" /><line x1="18.3940498951cm" x2="18.5cm" y1="0.16cm" y2="0.0cm" /><line x1="15.030403552cm" x2="15.0009533511cm" y1="4.0cm" y2="3.84cm" /><line x1="15.0009533511cm" x2="14.9697252923cm" y1="3.84cm" y2="3.68cm" /><line x1="14.9697252923cm" x2="14.9366291477cm" y1="3.68cm" y2="3.52cm" /><line x1="14.9366291477cm" x2="14.9015697153cm" y1="3.52cm" y2="3.36cm" /><line x1="14.9015697153cm" x2="14.864448456cm" y1="3.36cm" y2="3.2cm" /><line x1="14.864448456cm" x2="14.8251634307cm" y1="3.2cm" y2="3.04cm" /><line x1="14.8251634307cm" x2="14.7836091664cm" y1="3.04cm" y2="2.88cm" /><line x1="14.7836091664cm" x2="14.7396764905cm" y1="2.88cm" y2="2.72cm" /><line x1="14.7396764905cm" x2="14.6932523377cm" y1="2.72cm" y2="2.56cm" /><line x1="14.6932523377cm" x2="14.6442195313cm" y1="2.56cm" y2="2.4cm" /><line x1="14.6442195313cm" x2="14.5924565397cm" y1="2.4cm" y2="2.24cm" /><line x1="14.5924565397cm" x2="14.5378372078cm" y1="2.24cm" y2="2.08cm" /><line x1="14.5378372078cm" x2="14.4802304674cm" y1="2.08cm" y2="1.92cm" /><line x1="14.4802304674cm" x2="14.4195000241cm" y1="1.92cm" y2="1.76cm" /><line x1="14.4195000241cm" x2="14.3555040251cm" y1="1.76cm" y2="1.6cm" /><line x1="14.3555040251cm" x2="14.2880947071cm" y1="1.6cm" y2="1.44cm" /><line x1="14.2880947071cm" x2="14.2171180264cm" y1="1.44cm" y2="1.28cm" /><line x1="14.2171180264cm" x2="14.1424132717cm" y1="1.28cm" y2="1.12cm" /><line x1="14.1424132717cm" x2="14.06381266cm" y1="1.12cm" y2="0.96cm" /><line x1="14.06381266cm" x2="13.9811409172cm" y1="0.96cm" y2="0.8cm" /><line x1="13.9811409172cm" x2="13.8942148418cm" y1="0.8cm" y2="0.64cm" /><line x1="13.8942148418cm" x2="13.8028428538cm" y1="0.64cm" y2="0.48cm" /><line x1="13.8028428538cm" x2="13.706824527cm" y1="0.48cm" y2="0.32cm" /><line x1="13.706824527cm" x2="13.6059501049cm" y1="0.32cm" y2="0.16cm" /><line x1="13.6059501049cm" x2="13.5cm" y1="0.16cm" y2="0.0cm" /></g><g id="horizontal_tick" stroke="black"><line x1="16.0cm" x2="32.0cm" y1="0.0cm" y2="0.0cm" /><line x1="1.0cm" x2="16.0cm" y1="0.0cm" y2="0.0cm" /><line x1="16.0cm" x2="32.0cm" y1="0.361663652803cm" y2="0.361663652803cm" /><line x1="1.0cm" x2="16.0cm" y1="0.361663652803cm" y2="0.361663652803cm" /><line x1="16.0cm" x2="32.0cm" y1="0.723327305606cm" y2="0.723327305606cm" /><line x1="1.0cm" x2="16.0cm" y1="0.723327305606cm" y2="0.723327305606cm" /><line x1="16.0cm" x2="32.0cm" y1="1.08499095841cm" y2="1.08499095841cm" /><line x1="1.0cm" x2="16.0cm" y1="1.08499095841cm" y2="1.08499095841cm" /><line x1="16.0cm" x2="32.0cm" y1="1.44665461121cm" y2="1.44665461121cm" /><line x1="1.0cm" x2="16.0cm" y1="1.44665461121cm" y2="1.44665461121cm" /><line x1="16.0cm" x2="32.0cm" y1="1.80831826401cm" y2="1.80831826401cm" /><line x1="1.0cm" x2="16.0cm" y1="1.80831826401cm" y2="1.80831826401cm" /><line x1="16.0cm" x2="32.0cm" y1="2.16998191682cm" y2="2.16998191682cm" /><line x1="1.0cm" x2="16.0cm" y1="2.16998191682cm" y2="2.16998191682cm" /><line x1="16.0cm" x2="32.0cm" y1="2.53164556962cm" y2="2.53164556962cm" /><line x1="1.0cm" x2="16.0cm" y1="2.53164556962cm" y2="2.53164556962cm" /><line x1="16.0cm" x2="32.0cm" y1="2.89330922242cm" y2="2.89330922242cm" /><line x1="1.0cm" x2="16.0cm" y1="2.89330922242cm" y2="2.89330922242cm" /><line x1="16.0cm" x2="32.0cm" y1="3.25497287523cm" y2="3.25497287523cm" /><line x1="1.0cm" x2="16.0cm" y1="3.25497287523cm" y2="3.25497287523cm" /><line x1="16.0cm" x2="32.0cm" y1="3.61663652803cm" y2="3.61663652803cm" /><line x1="1.0cm" x2="16.0cm" y1="3.61663652803cm" y2="3.61663652803cm" /><line x1="16.0cm" x2="32.0cm" y1="4.0cm" y2="4.0cm" /><line x1="1.0cm" x2="16.0cm" y1="4.0cm" y2="4.0cm" /></g></svg>