<?xml version="1.0" encoding="utf-8" ?>
<svg baseProfile="full" height="6.0cm" version="1.1" width="22.713311656cm" xmlns="http://www.w3.org/2000/svg" xmlns:ev="http://www.w3.org/2001/xml-events" xmlns:xlink="http://www.w3.org/1999/xlink"><defs /><g font-size="12"><text x="21.713311656cm" y="5.0cm">37.8°</text><text x="0.0cm" y="5.0cm">37.8°</text><text x="21.713311656cm" y="3.47975077882cm">50.0°</text><text x="0.0cm" y="3.47975077882cm">50.0°</text><text x="21.713311656cm" y="2.23364485981cm">60.0°</text><text x="0.0cm" y="2.23364485981cm">60.0°</text><text x="21.713311656cm" y="1.0cm">69.9°</text><text x="0.0cm" y="1.0cm">69.9°</text></g><g id="vertical" stroke="black"><line x1="11.356655828cm" x2="11.356655828cm" y1="1.0cm" y2="1.08cm" /><line x1="11.356655828cm" x2="11.356655828cm" y1="1.08cm" y2="1.16cm" /><line x1="11.356655828cm" x2="11.356655828cm" y1="1.16cm" y2="1.24cm" /><line x1="11.356655828cm" x2="11.356655828cm" y1="1.24cm" y2="1.32cm" /><line x1="11.356655828cm" x2="11.356655828cm" y1="1.32cm" y2="1.4cm" /><line x1="11.356655828cm" x2="11.356655828cm" y1="1.4cm" y2="1.48cm" /><line x1="11.356655828cm" x2="11.356655828cm" y1="1.48cm" y2="1.56cm" /><line x1="11.356655828cm" x2="11.356655828cm" y1="1.56cm" y2="1.64cm" /><line x1="11.356655828cm" x2="11.356655828cm" y1="1.64cm" y2="1.72cm" /><line x1="11.356655828cm" x2="11.356655828cm" y1="1.72cm" y2="1.8cm" /><line x1="11.356655828cm" x2="11.356655828cm" y1="1.8cm" y2="1.88cm" /><line x1="11.356655828cm" x2="11.356655828cm" y1="1.88cm" y2="1.96cm" /><line x1="11.356655828cm" x2="11.356655828cm" y1="1.96cm" y2="2.04cm" /><line x1="11.356655828cm" x2="11.356655828cm" y1="2.04cm" y2="2.12cm" /><line x1="11.356655828cm" x2="11.356655828cm" y1="2.12cm" y2="2.2cm" /><line x1="11.356655828cm" x2="11.356655828cm" y1="2.2cm" y2="2.28cm" /><line x1="11.356655828cm" x2="11.356655828cm" y1="2.28cm" y2="2.36cm" /><line x1="11.356655828cm" x2="11.356655828cm" y1="2.36cm" y2="2.44cm" /><line x1="11.356655828cm" x2="11.356655828cm" y1="2.44cm" y2="2.52cm" /><line x1="11.356655828cm" x2="11.356655828cm" y1="2.52cm" y2="2.6cm" /><line x1="11.356655828cm" x2="11.356655828cm" y1="2.6cm" y2="2.68cm" /><line x1="11.356655828cm" x2="11.356655828cm" y1="2.68cm" y2="2.76cm" /><line x1="11.356655828cm" x2="11.356655828cm" y1="2.76cm" y2="2.84cm" /><line x1="11.356655828cm" x2="11.356655828cm" y1="2.84cm" y2="2.92cm" /><line x1="11.356655828cm" x2="11.356655828cm" y1="2.92cm" y2="3.0cm" /><line x1="11.356655828cm" x2="11.356655828cm" y1="3.0cm" y2="3.08cm" /><line x1="11.356655828cm" x2="11.356655828cm" y1="3.08cm" y2="3.16cm" /><line x1="11.356655828cm" x2="11.356655828cm" y1="3.16cm" y2="3.24cm" /><line x1="11.356655828cm" x2="11.356655828cm" y1="3.24cm" y2="3.32cm" /><line x1="11.356655828cm" x2="11.356655828cm" y1="3.32cm" y2="3.4cm" /><line x1="11.356655828cm" x2="11.356655828cm" y1="3.4cm" y2="3.48cm" /><line x1="11.356655828cm" x2="11.356655828cm" y1="3.48cm" y2="3.56cm" /><line x1="11.356655828cm" x2="11.356655828cm" y1="3.56cm" y2="3.64cm" /><line x1="11.356655828cm" x2="11.356655828cm" y1="3.64cm" y2="3.72cm" /><line x1="11.356655828cm" x2="11.356655828cm" y1="3.72cm" y2="3.8cm" /><line x1="11.356655828cm" x2="11.356655828cm" y1="3.8cm" y2="3.88cm" /><line x1="11.356655828cm" x2="11.356655828cm" y1="3.88cm" y2="3.96cm" /><line x1="11.356655828cm" x2="11.356655828cm" y1="3.96cm" y2="4.04cm" /><line x1="11.356655828cm" x2="11.356655828cm" y1="4.04cm" y2="4.12cm" /><line x1="11.356655828cm" x2="11.356655828cm" y1="4.12cm" y2="4.2cm" /><line x1="11.356655828cm" x2="11.356655828cm" y1="4.2cm" y2="4.28cm" /><line x1="11.356655828cm" x2="11.356655828cm" y1="4.28cm" y2="4.36cm" /><line x1="11.356655828cm" x2="11.356655828cm" y1="4.36cm" y2="4.44cm" /><line x1="11.356655828cm" x2="11.356655828cm" y1="4.44cm" y2="4.52cm" /><line x1="11.356655828cm" x2="11.356655828cm" y1="4.52cm" y2="4.6cm" /><line x1="11.356655828cm" x2="11.356655828cm" y1="4.6cm" y2="4.68cm" /><line x1="11.356655828cm" x2="11.356655828cm" y1="4.68cm" y2="4.76cm" /><line x1="11.356655828cm" x2="11.356655828cm" y1="4.76cm" y2="4.84cm" /><line x1="11.356655828cm" x2="11.356655828cm" y1="4.84cm" y2="4.92cm" /><line x1="11.356655828cm" x2="11.356655828cm" y1="4.92cm" y2="5.0cm" /><line x1="21.2522258367cm" x2="21.2951862346cm" y1="5.0cm" y2="4.92cm" /><line x1="21.2951862346cm" x2="21.3357791202cm" y1="4.92cm" y2="4.84cm" /><line x1="21.3357791202cm" x2="21.3740528888cm" y1="4.84cm" y2="4.76cm" /><line x1="21.3740528888cm" x2="21.4100538914cm" y1="4.76cm" y2="4.68cm" /><line x1="21.4100538914cm" x2="21.4438265628cm" y1="4.68cm" y2="4.6cm" /><line x1="21.4438265628cm" x2="21.4754135522cm" y1="4.6cm" y2="4.52cm" /><line x1="21.4754135522cm" x2="21.504855854cm" y1="4.52cm" y2="4.44cm" /><line x1="21.504855854cm" x2="21.5321929372cm" y1="4.44cm" y2="4.36cm" /><line x1="21.5321929372cm" x2="21.5574628703cm" y1="4.36cm" y2="4.28cm" /><line x1="21.5574628703cm" x2="21.5807024432cm" y1="4.28cm" y2="4.2cm" /><line x1="21.5807024432cm" x2="21.6019472825cm" y1="4.2cm" y2="4.12cm" /><line x1="21.6019472825cm" x2="21.6212319616cm" y1="4.12cm" y2="4.04cm" /><line x1="21.6212319616cm" x2="21.6385901047cm" y1="4.04cm" y2="3.96cm" /><line x1="21.6385901047cm" x2="21.6540544841cm" y1="3.96cm" y2="3.88cm" /><line x1="21.6540544841cm" x2="21.6676571108cm" y1="3.88cm" y2="3.8cm" /><line x1="21.6676571108cm" x2="21.6794293193cm" y1="3.8cm" y2="3.72cm" /><line x1="21.6794293193cm" x2="21.6894018454cm" y1="3.72cm" y2="3.64cm" /><line x1="21.6894018454cm" x2="21.6976048985cm" y1="3.64cm" y2="3.56cm" /><line x1="21.6976048985cm" x2="21.7040682267cm" y1="3.56cm" y2="3.48cm" /><line x1="21.7040682267cm" x2="21.7088211777cm" y1="3.48cm" y2="3.4cm" /><line x1="21.7088211777cm" x2="21.7118927527cm" y1="3.4cm" y2="3.32cm" /><line x1="21.7118927527cm" x2="21.713311656cm" y1="3.32cm" y2="3.24cm" /><line x1="21.713311656cm" x2="21.7131063392cm" y1="3.24cm" y2="3.16cm" /><line x1="21.7131063392cm" x2="21.7113050405cm" y1="3.16cm" y2="3.08cm" /><line x1="21.7113050405cm" x2="21.7079358199cm" y1="3.08cm" y2="3.0cm" /><line x1="21.7079358199cm" x2="21.70302659cm" y1="3.0cm" y2="2.92cm" /><line x1="21.70302659cm" x2="21.6966051426cm" y1="2.92cm" y2="2.84cm" /><line x1="21.6966051426cm" x2="21.688699172cm" y1="2.84cm" y2="2.76cm" /><line x1="21.688699172cm" x2="21.6793362948cm" y1="2.76cm" y2="2.68cm" /><line x1="21.6793362948cm" x2="21.6685440657cm" y1="2.68cm" y2="2.6cm" /><line x1="21.6685440657cm" x2="21.6563499917cm" y1="2.6cm" y2="2.52cm" /><line x1="21.6563499917cm" x2="21.6427815422cm" y1="2.52cm" y2="2.44cm" /><line x1="21.6427815422cm" x2="21.6278661569cm" y1="2.44cm" y2="2.36cm" /><line x1="21.6278661569cm" x2="21.6116312521cm" y1="2.36cm" y2="2.28cm" /><line x1="21.6116312521cm" x2="21.5941042234cm" y1="2.28cm" y2="2.2cm" /><line x1="21.5941042234cm" x2="21.5753124475cm" y1="2.2cm" y2="2.12cm" /><line x1="21.5753124475cm" x2="21.5552832819cm" y1="2.12cm" y2="2.04cm" /><line x1="21.5552832819cm" x2="21.5340440625cm" y1="2.04cm" y2="1.96cm" /><line x1="21.5340440625cm" x2="21.5116221001cm" y1="1.96cm" y2="1.88cm" /><line x1="21.5116221001cm" x2="21.4880446756cm" y1="1.88cm" y2="1.8cm" /><line x1="21.4880446756cm" x2="21.4633390337cm" y1="1.8cm" y2="1.72cm" /><line x1="21.4633390337cm" x2="21.4375323753cm" y1="1.72cm" y2="1.64cm" /><line x1="21.4375323753cm" x2="21.4106518497cm" y1="1.64cm" y2="1.56cm" /><line x1="21.4106518497cm" x2="21.356655828cm" y1="1.56cm" y2="1.48cm" /><line x1="21.356655828cm" x2="21.3537774794cm" y1="1.48cm" y2="1.4cm" /><line x1="21.3537774794cm" x2="21.3238375885cm" y1="1.4cm" y2="1.32cm" /><line x1="21.3238375885cm" x2="21.2929317165cm" y1="1.32cm" y2="1.24cm" /><line x1="21.2929317165cm" x2="21.2610866038cm" y1="1.24cm" y2="1.16cm" /><line x1="21.2610866038cm" x2="21.2283288751cm" y1="1.16cm" y2="1.08cm" /><line x1="21.2283288751cm" x2="21.1946850277cm" y1="1.08cm" y2="1.0cm" /><line x1="1.46108581925cm" x2="1.41812542137cm" y1="5.0cm" y2="4.92cm" /><line x1="1.41812542137cm" x2="1.37753253581cm" y1="4.92cm" y2="4.84cm" /><line x1="1.37753253581cm" x2="1.3392587672cm" y1="4.84cm" y2="4.76cm" /><line x1="1.3392587672cm" x2="1.30325776456cm" y1="4.76cm" y2="4.68cm" /><line x1="1.30325776456cm" x2="1.26948509317cm" y1="4.68cm" y2="4.6cm" /><line x1="1.26948509317cm" x2="1.23789810381cm" y1="4.6cm" y2="4.52cm" /><line x1="1.23789810381cm" x2="1.20845580195cm" y1="4.52cm" y2="4.44cm" /><line x1="1.20845580195cm" x2="1.18111871881cm" y1="4.44cm" y2="4.36cm" /><line x1="1.18111871881cm" x2="1.15584878566cm" y1="4.36cm" y2="4.28cm" /><line x1="1.15584878566cm" x2="1.13260921278cm" y1="4.28cm" y2="4.2cm" /><line x1="1.13260921278cm" x2="1.11136437353cm" y1="4.2cm" y2="4.12cm" /><line x1="1.11136437353cm" x2="1.09207969441cm" y1="4.12cm" y2="4.04cm" /><line x1="1.09207969441cm" x2="1.07472155127cm" y1="4.04cm" y2="3.96cm" /><line x1="1.07472155127cm" x2="1.05925717191cm" y1="3.96cm" y2="3.88cm" /><line x1="1.05925717191cm" x2="1.04565454523cm" y1="3.88cm" y2="3.8cm" /><line x1="1.04565454523cm" x2="1.03388233674cm" y1="3.8cm" y2="3.72cm" /><line x1="1.03388233674cm" x2="1.02390981057cm" y1="3.72cm" y2="3.64cm" /><line x1="1.02390981057cm" x2="1.01570675753cm" y1="3.64cm" y2="3.56cm" /><line x1="1.01570675753cm" x2="1.00924342929cm" y1="3.56cm" y2="3.48cm" /><line x1="1.00924342929cm" x2="1.00449047832cm" y1="3.48cm" y2="3.4cm" /><line x1="1.00449047832cm" x2="1.00141890332cm" y1="3.4cm" y2="3.32cm" /><line x1="1.00141890332cm" x2="1.0cm" y1="3.32cm" y2="3.24cm" /><line x1="1.0cm" x2="1.00020531682cm" y1="3.24cm" y2="3.16cm" /><line x1="1.00020531682cm" x2="1.00200661552cm" y1="3.16cm" y2="3.08cm" /><line x1="1.00200661552cm" x2="1.00537583608cm" y1="3.08cm" y2="3.0cm" /><line x1="1.00537583608cm" x2="1.010285066cm" y1="3.0cm" y2="2.92cm" /><line x1="1.010285066cm" x2="1.0167065134cm" y1="2.92cm" y2="2.84cm" /><line x1="1.0167065134cm" x2="1.02461248395cm" y1="2.84cm" y2="2.76cm" /><line x1="1.02461248395cm" x2="1.03397536123cm" y1="2.76cm" y2="2.68cm" /><line x1="1.03397536123cm" x2="1.04476759028cm" y1="2.68cm" y2="2.6cm" /><line x1="1.04476759028cm" x2="1.05696166428cm" y1="2.6cm" y2="2.52cm" /><line x1="1.05696166428cm" x2="1.07053011384cm" y1="2.52cm" y2="2.44cm" /><line x1="1.07053011384cm" x2="1.08544549908cm" y1="2.44cm" y2="2.36cm" /><line x1="1.08544549908cm" x2="1.1016804039cm" y1="2.36cm" y2="2.28cm" /><line x1="1.1016804039cm" x2="1.11920743261cm" y1="2.28cm" y2="2.2cm" /><line x1="1.11920743261cm" x2="1.13799920847cm" y1="2.2cm" y2="2.12cm" /><line x1="1.13799920847cm" x2="1.15802837408cm" y1="2.12cm" y2="2.04cm" /><line x1="1.15802837408cm" x2="1.17926759351cm" y1="2.04cm" y2="1.96cm" /><line x1="1.17926759351cm" x2="1.20168955588cm" y1="1.96cm" y2="1.88cm" /><line x1="1.20168955588cm" x2="1.22526698035cm" y1="1.88cm" y2="1.8cm" /><line x1="1.22526698035cm" x2="1.24997262232cm" y1="1.8cm" y2="1.72cm" /><line x1="1.24997262232cm" x2="1.27577928073cm" y1="1.72cm" y2="1.64cm" /><line x1="1.27577928073cm" x2="1.30265980633cm" y1="1.64cm" y2="1.56cm" /><line x1="1.30265980633cm" x2="1.356655828cm" y1="1.56cm" y2="1.48cm" /><line x1="1.356655828cm" x2="1.35953417664cm" y1="1.48cm" y2="1.4cm" /><line x1="1.35953417664cm" x2="1.38947406753cm" y1="1.4cm" y2="1.32cm" /><line x1="1.38947406753cm" x2="1.4203799395cm" y1="1.32cm" y2="1.24cm" /><line x1="1.4203799395cm" x2="1.45222505223cm" y1="1.24cm" y2="1.16cm" /><line x1="1.45222505223cm" x2="1.48498278091cm" y1="1.16cm" y2="1.08cm" /><line x1="1.48498278091cm" x2="1.51862662825cm" y1="1.08cm" y2="1.0cm" /><line x1="16.3044408324cm" x2="16.3259210313cm" y1="5.0cm" y2="4.92cm" /><line x1="16.3259210313cm" x2="16.3462174741cm" y1="4.92cm" y2="4.84cm" /><line x1="16.3462174741cm" x2="16.3653543584cm" y1="4.84cm" y2="4.76cm" /><line x1="16.3653543584cm" x2="16.3833548597cm" y1="4.76cm" y2="4.68cm" /><line x1="16.3833548597cm" x2="16.4002411954cm" y1="4.68cm" y2="4.6cm" /><line x1="16.4002411954cm" x2="16.4160346901cm" y1="4.6cm" y2="4.52cm" /><line x1="16.4160346901cm" x2="16.430755841cm" y1="4.52cm" y2="4.44cm" /><line x1="16.430755841cm" x2="16.4444243826cm" y1="4.44cm" y2="4.36cm" /><line x1="16.4444243826cm" x2="16.4570593492cm" y1="4.36cm" y2="4.28cm" /><line x1="16.4570593492cm" x2="16.4686791356cm" y1="4.28cm" y2="4.2cm" /><line x1="16.4686791356cm" x2="16.4793015552cm" y1="4.2cm" y2="4.12cm" /><line x1="16.4793015552cm" x2="16.4889438948cm" y1="4.12cm" y2="4.04cm" /><line x1="16.4889438948cm" x2="16.4976229664cm" y1="4.04cm" y2="3.96cm" /><line x1="16.4976229664cm" x2="16.505355156cm" y1="3.96cm" y2="3.88cm" /><line x1="16.505355156cm" x2="16.5121564694cm" y1="3.88cm" y2="3.8cm" /><line x1="16.5121564694cm" x2="16.5180425736cm" y1="3.8cm" y2="3.72cm" /><line x1="16.5180425736cm" x2="16.5230288367cm" y1="3.72cm" y2="3.64cm" /><line x1="16.5230288367cm" x2="16.5271303632cm" y1="3.64cm" y2="3.56cm" /><line x1="16.5271303632cm" x2="16.5303620274cm" y1="3.56cm" y2="3.48cm" /><line x1="16.5303620274cm" x2="16.5327385028cm" y1="3.48cm" y2="3.4cm" /><line x1="16.5327385028cm" x2="16.5342742903cm" y1="3.4cm" y2="3.32cm" /><line x1="16.5342742903cm" x2="16.534983742cm" y1="3.32cm" y2="3.24cm" /><line x1="16.534983742cm" x2="16.5348810836cm" y1="3.24cm" y2="3.16cm" /><line x1="16.5348810836cm" x2="16.5339804342cm" y1="3.16cm" y2="3.08cm" /><line x1="16.5339804342cm" x2="16.532295824cm" y1="3.08cm" y2="3.0cm" /><line x1="16.532295824cm" x2="16.529841209cm" y1="3.0cm" y2="2.92cm" /><line x1="16.529841209cm" x2="16.5266304853cm" y1="2.92cm" y2="2.84cm" /><line x1="16.5266304853cm" x2="16.5226775cm" y1="2.84cm" y2="2.76cm" /><line x1="16.5226775cm" x2="16.5179960614cm" y1="2.76cm" y2="2.68cm" /><line x1="16.5179960614cm" x2="16.5125999469cm" y1="2.68cm" y2="2.6cm" /><line x1="16.5125999469cm" x2="16.5065029099cm" y1="2.6cm" y2="2.52cm" /><line x1="16.5065029099cm" x2="16.4997186851cm" y1="2.52cm" y2="2.44cm" /><line x1="16.4997186851cm" x2="16.4922609925cm" y1="2.44cm" y2="2.36cm" /><line x1="16.4922609925cm" x2="16.48414354cm" y1="2.36cm" y2="2.28cm" /><line x1="16.48414354cm" x2="16.4753800257cm" y1="2.28cm" y2="2.2cm" /><line x1="16.4753800257cm" x2="16.4659841378cm" y1="2.2cm" y2="2.12cm" /><line x1="16.4659841378cm" x2="16.455969555cm" y1="2.12cm" y2="2.04cm" /><line x1="16.455969555cm" x2="16.4453499452cm" y1="2.04cm" y2="1.96cm" /><line x1="16.4453499452cm" x2="16.4341389641cm" y1="1.96cm" y2="1.88cm" /><line x1="16.4341389641cm" x2="16.4223502518cm" y1="1.88cm" y2="1.8cm" /><line x1="16.4223502518cm" x2="16.4099974308cm" y1="1.8cm" y2="1.72cm" /><line x1="16.4099974308cm" x2="16.3970941016cm" y1="1.72cm" y2="1.64cm" /><line x1="16.3970941016cm" x2="16.3836538388cm" y1="1.64cm" y2="1.56cm" /><line x1="16.3836538388cm" x2="16.356655828cm" y1="1.56cm" y2="1.48cm" /><line x1="16.356655828cm" x2="16.3552166537cm" y1="1.48cm" y2="1.4cm" /><line x1="16.3552166537cm" x2="16.3402467082cm" y1="1.4cm" y2="1.32cm" /><line x1="16.3402467082cm" x2="16.3247937722cm" y1="1.32cm" y2="1.24cm" /><line x1="16.3247937722cm" x2="16.3088712159cm" y1="1.24cm" y2="1.16cm" /><line x1="16.3088712159cm" x2="16.2924923515cm" y1="1.16cm" y2="1.08cm" /><line x1="16.2924923515cm" x2="16.2756704279cm" y1="1.08cm" y2="1.0cm" /><line x1="6.40887082362cm" x2="6.38739062468cm" y1="5.0cm" y2="4.92cm" /><line x1="6.38739062468cm" x2="6.3670941819cm" y1="4.92cm" y2="4.84cm" /><line x1="6.3670941819cm" x2="6.3479572976cm" y1="4.84cm" y2="4.76cm" /><line x1="6.3479572976cm" x2="6.32995679628cm" y1="4.76cm" y2="4.68cm" /><line x1="6.32995679628cm" x2="6.31307046058cm" y1="4.68cm" y2="4.6cm" /><line x1="6.31307046058cm" x2="6.2972769659cm" y1="4.6cm" y2="4.52cm" /><line x1="6.2972769659cm" x2="6.28255581498cm" y1="4.52cm" y2="4.44cm" /><line x1="6.28255581498cm" x2="6.2688872734cm" y1="4.44cm" y2="4.36cm" /><line x1="6.2688872734cm" x2="6.25625230683cm" y1="4.36cm" y2="4.28cm" /><line x1="6.25625230683cm" x2="6.24463252039cm" y1="4.28cm" y2="4.2cm" /><line x1="6.24463252039cm" x2="6.23401010076cm" y1="4.2cm" y2="4.12cm" /><line x1="6.23401010076cm" x2="6.2243677612cm" y1="4.12cm" y2="4.04cm" /><line x1="6.2243677612cm" x2="6.21568868963cm" y1="4.04cm" y2="3.96cm" /><line x1="6.21568868963cm" x2="6.20795649996cm" y1="3.96cm" y2="3.88cm" /><line x1="6.20795649996cm" x2="6.20115518661cm" y1="3.88cm" y2="3.8cm" /><line x1="6.20115518661cm" x2="6.19526908237cm" y1="3.8cm" y2="3.72cm" /><line x1="6.19526908237cm" x2="6.19028281928cm" y1="3.72cm" y2="3.64cm" /><line x1="6.19028281928cm" x2="6.18618129276cm" y1="3.64cm" y2="3.56cm" /><line x1="6.18618129276cm" x2="6.18294962864cm" y1="3.56cm" y2="3.48cm" /><line x1="6.18294962864cm" x2="6.18057315316cm" y1="3.48cm" y2="3.4cm" /><line x1="6.18057315316cm" x2="6.17903736566cm" y1="3.4cm" y2="3.32cm" /><line x1="6.17903736566cm" x2="6.178327914cm" y1="3.32cm" y2="3.24cm" /><line x1="6.178327914cm" x2="6.17843057241cm" y1="3.24cm" y2="3.16cm" /><line x1="6.17843057241cm" x2="6.17933122176cm" y1="3.16cm" y2="3.08cm" /><line x1="6.17933122176cm" x2="6.18101583204cm" y1="3.08cm" y2="3.0cm" /><line x1="6.18101583204cm" x2="6.183470447cm" y1="3.0cm" y2="2.92cm" /><line x1="6.183470447cm" x2="6.1866811707cm" y1="2.92cm" y2="2.84cm" /><line x1="6.1866811707cm" x2="6.19063415598cm" y1="2.84cm" y2="2.76cm" /><line x1="6.19063415598cm" x2="6.19531559461cm" y1="2.76cm" y2="2.68cm" /><line x1="6.19531559461cm" x2="6.20071170914cm" y1="2.68cm" y2="2.6cm" /><line x1="6.20071170914cm" x2="6.20680874614cm" y1="2.6cm" y2="2.52cm" /><line x1="6.20680874614cm" x2="6.21359297092cm" y1="2.52cm" y2="2.44cm" /><line x1="6.21359297092cm" x2="6.22105066354cm" y1="2.44cm" y2="2.36cm" /><line x1="6.22105066354cm" x2="6.22916811595cm" y1="2.36cm" y2="2.28cm" /><line x1="6.22916811595cm" x2="6.23793163031cm" y1="2.28cm" y2="2.2cm" /><line x1="6.23793163031cm" x2="6.24732751823cm" y1="2.2cm" y2="2.12cm" /><line x1="6.24732751823cm" x2="6.25734210104cm" y1="2.12cm" y2="2.04cm" /><line x1="6.25734210104cm" x2="6.26796171075cm" y1="2.04cm" y2="1.96cm" /><line x1="6.26796171075cm" x2="6.27917269194cm" y1="1.96cm" y2="1.88cm" /><line x1="6.27917269194cm" x2="6.29096140417cm" y1="1.88cm" y2="1.8cm" /><line x1="6.29096140417cm" x2="6.30331422516cm" y1="1.8cm" y2="1.72cm" /><line x1="6.30331422516cm" x2="6.31621755436cm" y1="1.72cm" y2="1.64cm" /><line x1="6.31621755436cm" x2="6.32965781716cm" y1="1.64cm" y2="1.56cm" /><line x1="6.32965781716cm" x2="6.356655828cm" y1="1.56cm" y2="1.48cm" /><line x1="6.356655828cm" x2="6.35809500232cm" y1="1.48cm" y2="1.4cm" /><line x1="6.35809500232cm" x2="6.37306494776cm" y1="1.4cm" y2="1.32cm" /><line x1="6.37306494776cm" x2="6.38851788375cm" y1="1.32cm" y2="1.24cm" /><line x1="6.38851788375cm" x2="6.40444044011cm" y1="1.24cm" y2="1.16cm" /><line x1="6.40444044011cm" x2="6.42081930445cm" y1="1.16cm" y2="1.08cm" /><line x1="6.42081930445cm" x2="6.43764122812cm" y1="1.08cm" y2="1.0cm" /><line x1="13.8305483302cm" x2="13.8412884297cm" y1="5.0cm" y2="4.92cm" /><line x1="13.8412884297cm" x2="13.851436651cm" y1="4.92cm" y2="4.84cm" /><line x1="13.851436651cm" x2="13.8610050932cm" y1="4.84cm" y2="4.76cm" /><line x1="13.8610050932cm" x2="13.8700053439cm" y1="4.76cm" y2="4.68cm" /><line x1="13.8700053439cm" x2="13.8784485117cm" y1="4.68cm" y2="4.6cm" /><line x1="13.8784485117cm" x2="13.886345259cm" y1="4.6cm" y2="4.52cm" /><line x1="13.886345259cm" x2="13.8937058345cm" y1="4.52cm" y2="4.44cm" /><line x1="13.8937058345cm" x2="13.9005401053cm" y1="4.44cm" y2="4.36cm" /><line x1="13.9005401053cm" x2="13.9068575886cm" y1="4.36cm" y2="4.28cm" /><line x1="13.9068575886cm" x2="13.9126674818cm" y1="4.28cm" y2="4.2cm" /><line x1="13.9126674818cm" x2="13.9179786916cm" y1="4.2cm" y2="4.12cm" /><line x1="13.9179786916cm" x2="13.9227998614cm" y1="4.12cm" y2="4.04cm" /><line x1="13.9227998614cm" x2="13.9271393972cm" y1="4.04cm" y2="3.96cm" /><line x1="13.9271393972cm" x2="13.931005492cm" y1="3.96cm" y2="3.88cm" /><line x1="13.931005492cm" x2="13.9344061487cm" y1="3.88cm" y2="3.8cm" /><line x1="13.9344061487cm" x2="13.9373492008cm" y1="3.8cm" y2="3.72cm" /><line x1="13.9373492008cm" x2="13.9398423324cm" y1="3.72cm" y2="3.64cm" /><line x1="13.9398423324cm" x2="13.9418930956cm" y1="3.64cm" y2="3.56cm" /><line x1="13.9418930956cm" x2="13.9435089277cm" y1="3.56cm" y2="3.48cm" /><line x1="13.9435089277cm" x2="13.9446971654cm" y1="3.48cm" y2="3.4cm" /><line x1="13.9446971654cm" x2="13.9454650592cm" y1="3.4cm" y2="3.32cm" /><line x1="13.9454650592cm" x2="13.945819785cm" y1="3.32cm" y2="3.24cm" /><line x1="13.945819785cm" x2="13.9457684558cm" y1="3.24cm" y2="3.16cm" /><line x1="13.9457684558cm" x2="13.9453181311cm" y1="3.16cm" y2="3.08cm" /><line x1="13.9453181311cm" x2="13.944475826cm" y1="3.08cm" y2="3.0cm" /><line x1="13.944475826cm" x2="13.9432485185cm" y1="3.0cm" y2="2.92cm" /><line x1="13.9432485185cm" x2="13.9416431566cm" y1="2.92cm" y2="2.84cm" /><line x1="13.9416431566cm" x2="13.939666664cm" y1="2.84cm" y2="2.76cm" /><line x1="13.939666664cm" x2="13.9373259447cm" y1="2.76cm" y2="2.68cm" /><line x1="13.9373259447cm" x2="13.9346278874cm" y1="2.68cm" y2="2.6cm" /><line x1="13.9346278874cm" x2="13.9315793689cm" y1="2.6cm" y2="2.52cm" /><line x1="13.9315793689cm" x2="13.9281872565cm" y1="2.52cm" y2="2.44cm" /><line x1="13.9281872565cm" x2="13.9244584102cm" y1="2.44cm" y2="2.36cm" /><line x1="13.9244584102cm" x2="13.920399684cm" y1="2.36cm" y2="2.28cm" /><line x1="13.920399684cm" x2="13.9160179268cm" y1="2.28cm" y2="2.2cm" /><line x1="13.9160179268cm" x2="13.9113199829cm" y1="2.2cm" y2="2.12cm" /><line x1="13.9113199829cm" x2="13.9063126915cm" y1="2.12cm" y2="2.04cm" /><line x1="13.9063126915cm" x2="13.9010028866cm" y1="2.04cm" y2="1.96cm" /><line x1="13.9010028866cm" x2="13.895397396cm" y1="1.96cm" y2="1.88cm" /><line x1="13.895397396cm" x2="13.8895030399cm" y1="1.88cm" y2="1.8cm" /><line x1="13.8895030399cm" x2="13.8833266294cm" y1="1.8cm" y2="1.72cm" /><line x1="13.8833266294cm" x2="13.8768749648cm" y1="1.72cm" y2="1.64cm" /><line x1="13.8768749648cm" x2="13.8701548334cm" y1="1.64cm" y2="1.56cm" /><line x1="13.8701548334cm" x2="13.856655828cm" y1="1.56cm" y2="1.48cm" /><line x1="13.856655828cm" x2="13.8559362408cm" y1="1.48cm" y2="1.4cm" /><line x1="13.8559362408cm" x2="13.8484512681cm" y1="1.4cm" y2="1.32cm" /><line x1="13.8484512681cm" x2="13.8407248001cm" y1="1.32cm" y2="1.24cm" /><line x1="13.8407248001cm" x2="13.8327635219cm" y1="1.24cm" y2="1.16cm" /><line x1="13.8327635219cm" x2="13.8245740898cm" y1="1.16cm" y2="1.08cm" /><line x1="13.8245740898cm" x2="13.8161631279cm" y1="1.08cm" y2="1.0cm" /><line x1="8.88276332581cm" x2="8.87202322634cm" y1="5.0cm" y2="4.92cm" /><line x1="8.87202322634cm" x2="8.86187500495cm" y1="4.92cm" y2="4.84cm" /><line x1="8.86187500495cm" x2="8.8523065628cm" y1="4.84cm" y2="4.76cm" /><line x1="8.8523065628cm" x2="8.84330631214cm" y1="4.76cm" y2="4.68cm" /><line x1="8.84330631214cm" x2="8.83486314429cm" y1="4.68cm" y2="4.6cm" /><line x1="8.83486314429cm" x2="8.82696639695cm" y1="4.6cm" y2="4.52cm" /><line x1="8.82696639695cm" x2="8.81960582149cm" y1="4.52cm" y2="4.44cm" /><line x1="8.81960582149cm" x2="8.8127715507cm" y1="4.44cm" y2="4.36cm" /><line x1="8.8127715507cm" x2="8.80645406741cm" y1="4.36cm" y2="4.28cm" /><line x1="8.80645406741cm" x2="8.80064417419cm" y1="4.28cm" y2="4.2cm" /><line x1="8.80064417419cm" x2="8.79533296438cm" y1="4.2cm" y2="4.12cm" /><line x1="8.79533296438cm" x2="8.7905117946cm" y1="4.12cm" y2="4.04cm" /><line x1="8.7905117946cm" x2="8.78617225882cm" y1="4.04cm" y2="3.96cm" /><line x1="8.78617225882cm" x2="8.78230616398cm" y1="3.96cm" y2="3.88cm" /><line x1="8.78230616398cm" x2="8.7789055073cm" y1="3.88cm" y2="3.8cm" /><line x1="8.7789055073cm" x2="8.77596245518cm" y1="3.8cm" y2="3.72cm" /><line x1="8.77596245518cm" x2="8.77346932364cm" y1="3.72cm" y2="3.64cm" /><line x1="8.77346932364cm" x2="8.77141856038cm" y1="3.64cm" y2="3.56cm" /><line x1="8.77141856038cm" x2="8.76980272832cm" y1="3.56cm" y2="3.48cm" /><line x1="8.76980272832cm" x2="8.76861449058cm" y1="3.48cm" y2="3.4cm" /><line x1="8.76861449058cm" x2="8.76784659683cm" y1="3.4cm" y2="3.32cm" /><line x1="8.76784659683cm" x2="8.767491871cm" y1="3.32cm" y2="3.24cm" /><line x1="8.767491871cm" x2="8.7675432002cm" y1="3.24cm" y2="3.16cm" /><line x1="8.7675432002cm" x2="8.76799352488cm" y1="3.16cm" y2="3.08cm" /><line x1="8.76799352488cm" x2="8.76883583002cm" y1="3.08cm" y2="3.0cm" /><line x1="8.76883583002cm" x2="8.7700631375cm" y1="3.0cm" y2="2.92cm" /><line x1="8.7700631375cm" x2="8.77166849935cm" y1="2.92cm" y2="2.84cm" /><line x1="8.77166849935cm" x2="8.77364499199cm" y1="2.84cm" y2="2.76cm" /><line x1="8.77364499199cm" x2="8.7759857113cm" y1="2.76cm" y2="2.68cm" /><line x1="8.7759857113cm" x2="8.77868376857cm" y1="2.68cm" y2="2.6cm" /><line x1="8.77868376857cm" x2="8.78173228707cm" y1="2.6cm" y2="2.52cm" /><line x1="8.78173228707cm" x2="8.78512439946cm" y1="2.52cm" y2="2.44cm" /><line x1="8.78512439946cm" x2="8.78885324577cm" y1="2.44cm" y2="2.36cm" /><line x1="8.78885324577cm" x2="8.79291197197cm" y1="2.36cm" y2="2.28cm" /><line x1="8.79291197197cm" x2="8.79729372915cm" y1="2.28cm" y2="2.2cm" /><line x1="8.79729372915cm" x2="8.80199167311cm" y1="2.2cm" y2="2.12cm" /><line x1="8.80199167311cm" x2="8.80699896452cm" y1="2.12cm" y2="2.04cm" /><line x1="8.80699896452cm" x2="8.81230876937cm" y1="2.04cm" y2="1.96cm" /><line x1="8.81230876937cm" x2="8.81791425997cm" y1="1.96cm" y2="1.88cm" /><line x1="8.81791425997cm" x2="8.82380861609cm" y1="1.88cm" y2="1.8cm" /><line x1="8.82380861609cm" x2="8.82998502658cm" y1="1.8cm" y2="1.72cm" /><line x1="8.82998502658cm" x2="8.83643669118cm" y1="1.72cm" y2="1.64cm" /><line x1="8.83643669118cm" x2="8.84315682258cm" y1="1.64cm" y2="1.56cm" /><line x1="8.84315682258cm" x2="8.856655828cm" y1="1.56cm" y2="1.48cm" /><line x1="8.856655828cm" x2="8.85737541516cm" y1="1.48cm" y2="1.4cm" /><line x1="8.85737541516cm" x2="8.86486038788cm" y1="1.4cm" y2="1.32cm" /><line x1="8.86486038788cm" x2="8.87258685587cm" y1="1.32cm" y2="1.24cm" /><line x1="8.87258685587cm" x2="8.88054813405cm" y1="1.24cm" y2="1.16cm" /><line x1="8.88054813405cm" x2="8.88873756622cm" y1="1.16cm" y2="1.08cm" /><line x1="8.88873756622cm" x2="8.89714852806cm" y1="1.08cm" y2="1.0cm" /><line x1="12.5936020791cm" x2="12.5989721288cm" y1="5.0cm" y2="4.92cm" /><line x1="12.5989721288cm" x2="12.6040462395cm" y1="4.92cm" y2="4.84cm" /><line x1="12.6040462395cm" x2="12.6088304606cm" y1="4.84cm" y2="4.76cm" /><line x1="12.6088304606cm" x2="12.6133305859cm" y1="4.76cm" y2="4.68cm" /><line x1="12.6133305859cm" x2="12.6175521699cm" y1="4.68cm" y2="4.6cm" /><line x1="12.6175521699cm" x2="12.6215005435cm" y1="4.6cm" y2="4.52cm" /><line x1="12.6215005435cm" x2="12.6251808313cm" y1="4.52cm" y2="4.44cm" /><line x1="12.6251808313cm" x2="12.6285979666cm" y1="4.44cm" y2="4.36cm" /><line x1="12.6285979666cm" x2="12.6317567083cm" y1="4.36cm" y2="4.28cm" /><line x1="12.6317567083cm" x2="12.6346616549cm" y1="4.28cm" y2="4.2cm" /><line x1="12.6346616549cm" x2="12.6373172598cm" y1="4.2cm" y2="4.12cm" /><line x1="12.6373172598cm" x2="12.6397278447cm" y1="4.12cm" y2="4.04cm" /><line x1="12.6397278447cm" x2="12.6418976126cm" y1="4.04cm" y2="3.96cm" /><line x1="12.6418976126cm" x2="12.64383066cm" y1="3.96cm" y2="3.88cm" /><line x1="12.64383066cm" x2="12.6455309883cm" y1="3.88cm" y2="3.8cm" /><line x1="12.6455309883cm" x2="12.6470025144cm" y1="3.8cm" y2="3.72cm" /><line x1="12.6470025144cm" x2="12.6482490802cm" y1="3.72cm" y2="3.64cm" /><line x1="12.6482490802cm" x2="12.6492744618cm" y1="3.64cm" y2="3.56cm" /><line x1="12.6492744618cm" x2="12.6500823778cm" y1="3.56cm" y2="3.48cm" /><line x1="12.6500823778cm" x2="12.6506764967cm" y1="3.48cm" y2="3.4cm" /><line x1="12.6506764967cm" x2="12.6510604436cm" y1="3.4cm" y2="3.32cm" /><line x1="12.6510604436cm" x2="12.6512378065cm" y1="3.32cm" y2="3.24cm" /><line x1="12.6512378065cm" x2="12.6512121419cm" y1="3.24cm" y2="3.16cm" /><line x1="12.6512121419cm" x2="12.6509869796cm" y1="3.16cm" y2="3.08cm" /><line x1="12.6509869796cm" x2="12.650565827cm" y1="3.08cm" y2="3.0cm" /><line x1="12.650565827cm" x2="12.6499521732cm" y1="3.0cm" y2="2.92cm" /><line x1="12.6499521732cm" x2="12.6491494923cm" y1="2.92cm" y2="2.84cm" /><line x1="12.6491494923cm" x2="12.648161246cm" y1="2.84cm" y2="2.76cm" /><line x1="12.648161246cm" x2="12.6469908863cm" y1="2.76cm" y2="2.68cm" /><line x1="12.6469908863cm" x2="12.6456418577cm" y1="2.68cm" y2="2.6cm" /><line x1="12.6456418577cm" x2="12.6441175985cm" y1="2.6cm" y2="2.52cm" /><line x1="12.6441175985cm" x2="12.6424215423cm" y1="2.52cm" y2="2.44cm" /><line x1="12.6424215423cm" x2="12.6405571191cm" y1="2.44cm" y2="2.36cm" /><line x1="12.6405571191cm" x2="12.638527756cm" y1="2.36cm" y2="2.28cm" /><line x1="12.638527756cm" x2="12.6363368774cm" y1="2.28cm" y2="2.2cm" /><line x1="12.6363368774cm" x2="12.6339879054cm" y1="2.2cm" y2="2.12cm" /><line x1="12.6339879054cm" x2="12.6314842597cm" y1="2.12cm" y2="2.04cm" /><line x1="12.6314842597cm" x2="12.6288293573cm" y1="2.04cm" y2="1.96cm" /><line x1="12.6288293573cm" x2="12.626026612cm" y1="1.96cm" y2="1.88cm" /><line x1="12.626026612cm" x2="12.623079434cm" y1="1.88cm" y2="1.8cm" /><line x1="12.623079434cm" x2="12.6199912287cm" y1="1.8cm" y2="1.72cm" /><line x1="12.6199912287cm" x2="12.6167653964cm" y1="1.72cm" y2="1.64cm" /><line x1="12.6167653964cm" x2="12.6134053307cm" y1="1.64cm" y2="1.56cm" /><line x1="12.6134053307cm" x2="12.606655828cm" y1="1.56cm" y2="1.48cm" /><line x1="12.606655828cm" x2="12.6062960344cm" y1="1.48cm" y2="1.4cm" /><line x1="12.6062960344cm" x2="12.6025535481cm" y1="1.4cm" y2="1.32cm" /><line x1="12.6025535481cm" x2="12.5986903141cm" y1="1.32cm" y2="1.24cm" /><line x1="12.5986903141cm" x2="12.594709675cm" y1="1.24cm" y2="1.16cm" /><line x1="12.594709675cm" x2="12.5906149589cm" y1="1.16cm" y2="1.08cm" /><line x1="12.5906149589cm" x2="12.586409478cm" y1="1.08cm" y2="1.0cm" /><line x1="10.1197095769cm" x2="10.1143395272cm" y1="5.0cm" y2="4.92cm" /><line x1="10.1143395272cm" x2="10.1092654165cm" y1="4.92cm" y2="4.84cm" /><line x1="10.1092654165cm" x2="10.1044811954cm" y1="4.84cm" y2="4.76cm" /><line x1="10.1044811954cm" x2="10.0999810701cm" y1="4.76cm" y2="4.68cm" /><line x1="10.0999810701cm" x2="10.0957594861cm" y1="4.68cm" y2="4.6cm" /><line x1="10.0957594861cm" x2="10.0918111125cm" y1="4.6cm" y2="4.52cm" /><line x1="10.0918111125cm" x2="10.0881308247cm" y1="4.52cm" y2="4.44cm" /><line x1="10.0881308247cm" x2="10.0847136893cm" y1="4.44cm" y2="4.36cm" /><line x1="10.0847136893cm" x2="10.0815549477cm" y1="4.36cm" y2="4.28cm" /><line x1="10.0815549477cm" x2="10.0786500011cm" y1="4.28cm" y2="4.2cm" /><line x1="10.0786500011cm" x2="10.0759943962cm" y1="4.2cm" y2="4.12cm" /><line x1="10.0759943962cm" x2="10.0735838113cm" y1="4.12cm" y2="4.04cm" /><line x1="10.0735838113cm" x2="10.0714140434cm" y1="4.04cm" y2="3.96cm" /><line x1="10.0714140434cm" x2="10.069480996cm" y1="3.96cm" y2="3.88cm" /><line x1="10.069480996cm" x2="10.0677806677cm" y1="3.88cm" y2="3.8cm" /><line x1="10.0677806677cm" x2="10.0663091416cm" y1="3.8cm" y2="3.72cm" /><line x1="10.0663091416cm" x2="10.0650625758cm" y1="3.72cm" y2="3.64cm" /><line x1="10.0650625758cm" x2="10.0640371942cm" y1="3.64cm" y2="3.56cm" /><line x1="10.0640371942cm" x2="10.0632292782cm" y1="3.56cm" y2="3.48cm" /><line x1="10.0632292782cm" x2="10.0626351593cm" y1="3.48cm" y2="3.4cm" /><line x1="10.0626351593cm" x2="10.0622512124cm" y1="3.4cm" y2="3.32cm" /><line x1="10.0622512124cm" x2="10.0620738495cm" y1="3.32cm" y2="3.24cm" /><line x1="10.0620738495cm" x2="10.0620995141cm" y1="3.24cm" y2="3.16cm" /><line x1="10.0620995141cm" x2="10.0623246764cm" y1="3.16cm" y2="3.08cm" /><line x1="10.0623246764cm" x2="10.062745829cm" y1="3.08cm" y2="3.0cm" /><line x1="10.062745829cm" x2="10.0633594827cm" y1="3.0cm" y2="2.92cm" /><line x1="10.0633594827cm" x2="10.0641621637cm" y1="2.92cm" y2="2.84cm" /><line x1="10.0641621637cm" x2="10.06515041cm" y1="2.84cm" y2="2.76cm" /><line x1="10.06515041cm" x2="10.0663207697cm" y1="2.76cm" y2="2.68cm" /><line x1="10.0663207697cm" x2="10.0676697983cm" y1="2.68cm" y2="2.6cm" /><line x1="10.0676697983cm" x2="10.0691940575cm" y1="2.6cm" y2="2.52cm" /><line x1="10.0691940575cm" x2="10.0708901137cm" y1="2.52cm" y2="2.44cm" /><line x1="10.0708901137cm" x2="10.0727545369cm" y1="2.44cm" y2="2.36cm" /><line x1="10.0727545369cm" x2="10.0747839cm" y1="2.36cm" y2="2.28cm" /><line x1="10.0747839cm" x2="10.0769747786cm" y1="2.28cm" y2="2.2cm" /><line x1="10.0769747786cm" x2="10.0793237506cm" y1="2.2cm" y2="2.12cm" /><line x1="10.0793237506cm" x2="10.0818273963cm" y1="2.12cm" y2="2.04cm" /><line x1="10.0818273963cm" x2="10.0844822987cm" y1="2.04cm" y2="1.96cm" /><line x1="10.0844822987cm" x2="10.087285044cm" y1="1.96cm" y2="1.88cm" /><line x1="10.087285044cm" x2="10.090232222cm" y1="1.88cm" y2="1.8cm" /><line x1="10.090232222cm" x2="10.0933204273cm" y1="1.8cm" y2="1.72cm" /><line x1="10.0933204273cm" x2="10.0965462596cm" y1="1.72cm" y2="1.64cm" /><line x1="10.0965462596cm" x2="10.0999063253cm" y1="1.64cm" y2="1.56cm" /><line x1="10.0999063253cm" x2="10.106655828cm" y1="1.56cm" y2="1.48cm" /><line x1="10.106655828cm" x2="10.1070156216cm" y1="1.48cm" y2="1.4cm" /><line x1="10.1070156216cm" x2="10.1107581079cm" y1="1.4cm" y2="1.32cm" /><line x1="10.1107581079cm" x2="10.1146213419cm" y1="1.32cm" y2="1.24cm" /><line x1="10.1146213419cm" x2="10.118601981cm" y1="1.24cm" y2="1.16cm" /><line x1="10.118601981cm" x2="10.1226966971cm" y1="1.16cm" y2="1.08cm" /><line x1="10.1226966971cm" x2="10.126902178cm" y1="1.08cm" y2="1.0cm" /></g><text x="21.2522258367cm" y="5.3cm">100km</text><text x="1.46108581925cm" y="5.3cm">100km</text><text x="16.3044408324cm" y="5.3cm">50km</text><text x="6.40887082362cm" y="5.3cm">50km</text><text x="13.8305483302cm" y="5.3cm">25km</text><text x="8.88276332581cm" y="5.3cm">25km</text><g id="horizontal_tick" stroke="black"><line x1="11.356655828cm" x2="21.713311656cm" y1="5.0cm" y2="5.0cm" /><line x1="1.0cm" x2="11.356655828cm" y1="5.0cm" y2="5.0cm" /><line x1="11.356655828cm" x2="21.713311656cm" y1="4.10280373832cm" y2="4.10280373832cm" /><line x1="1.0cm" x2="11.356655828cm" y1="4.10280373832cm" y2="4.10280373832cm" /><line x1="11.356655828cm" x2="21.713311656cm" y1="3.47975077882cm" y2="3.47975077882cm" /><line x1="1.0cm" x2="11.356655828cm" y1="3.47975077882cm" y2="3.47975077882cm" /><line x1="11.356655828cm" x2="21.713311656cm" y1="2.85669781931cm" y2="2.85669781931cm" /><line x1="1.0cm" x2="11.356655828cm" y1="2.85669781931cm" y2="2.85669781931cm" /><line x1="11.356655828cm" x2="21.713311656cm" y1="2.23364485981cm" y2="2.23364485981cm" /><line x1="1.0cm" x2="11.356655828cm" y1="2.23364485981cm" y2="2.23364485981cm" /><line x1="11.356655828cm" x2="21.713311656cm" y1="1.61059190031cm" y2="1.61059190031cm" /><line x1="1.0cm" x2="11.356655828cm" y1="1.61059190031cm" y2="1.61059190031cm" /><line x1="11.356655828cm" x2="21.713311656cm" y1="1.0cm" y2="1.0cm" /><line x1="1.0cm" x2="11.356655828cm" y1="1.0cm" y2="1.0cm" /></g></svg>