<?xml version="1.0" encoding="utf-8" ?>
<svg baseProfile="full" height="6.0cm" version="1.1" width="53.5678456758cm" xmlns="http://www.w3.org/2000/svg" xmlns:ev="http://www.w3.org/2001/xml-events" xmlns:xlink="http://www.w3.org/1999/xlink"><defs /><g font-size="12"><text x="52.5678456758cm" y="5.0cm">0.0°</text><text x="0.0cm" y="5.0cm">0.0°</text><text x="52.5678456758cm" y="4.27667269439cm">10.0°</text><text x="0.0cm" y="4.27667269439cm">10.0°</text><text x="52.5678456758cm" y="3.55334538879cm">20.0°</text><text x="0.0cm" y="3.55334538879cm">20.0°</text><text x="52.5678456758cm" y="2.83001808318cm">30.0°</text><text x="0.0cm" y="2.83001808318cm">30.0°</text><text x="52.5678456758cm" y="2.10669077758cm">40.0°</text><text x="0.0cm" y="2.10669077758cm">40.0°</text><text x="52.5678456758cm" y="1.38336347197cm">50.0°</text><text x="0.0cm" y="1.38336347197cm">50.0°</text></g><g id="vertical" stroke="black"><line x1="26.7839228379cm" x2="26.7839228379cm" y1="1.0cm" y2="1.16cm" /><line x1="26.7839228379cm" x2="26.7839228379cm" y1="1.16cm" y2="1.32cm" /><line x1="26.7839228379cm" x2="26.7839228379cm" y1="1.32cm" y2="1.48cm" /><line x1="26.7839228379cm" x2="26.7839228379cm" y1="1.48cm" y2="1.64cm" /><line x1="26.7839228379cm" x2="26.7839228379cm" y1="1.64cm" y2="1.8cm" /><line x1="26.7839228379cm" x2="26.7839228379cm" y1="1.8cm" y2="1.96cm" /><line x1="26.7839228379cm" x2="26.7839228379cm" y1="1.96cm" y2="2.12cm" /><line x1="26.7839228379cm" x2="26.7839228379cm" y1="2.12cm" y2="2.28cm" /><line x1="26.7839228379cm" x2="26.7839228379cm" y1="2.28cm" y2="2.44cm" /><line x1="26.7839228379cm" x2="26.7839228379cm" y1="2.44cm" y2="2.6cm" /><line x1="26.7839228379cm" x2="26.7839228379cm" y1="2.6cm" y2="2.76cm" /><line x1="26.7839228379cm" x2="26.7839228379cm" y1="2.76cm" y2="2.92cm" /><line x1="26.7839228379cm" x2="26.7839228379cm" y1="2.92cm" y2="3.08cm" /><line x1="26.7839228379cm" x2="26.7839228379cm" y1="3.08cm" y2="3.24cm" /><line x1="26.7839228379cm" x2="26.7839228379cm" y1="3.24cm" y2="3.4cm" /><line x1="26.7839228379cm" x2="26.7839228379cm" y1="3.4cm" y2="3.56cm" /><line x1="26.7839228379cm" x2="26.7839228379cm" y1="3.56cm" y2="3.72cm" /><line x1="26.7839228379cm" x2="26.7839228379cm" y1="3.72cm" y2="3.88cm" /><line x1="26.7839228379cm" x2="26.7839228379cm" y1="3.88cm" y2="4.04cm" /><line x1="26.7839228379cm" x2="26.7839228379cm" y1="4.04cm" y2="4.2cm" /><line x1="26.7839228379cm" x2="26.7839228379cm" y1="4.2cm" y2="4.36cm" /><line x1="26.7839228379cm" x2="26.7839228379cm" y1="4.36cm" y2="4.52cm" /><line x1="26.7839228379cm" x2="26.7839228379cm" y1="4.52cm" y2="4.68cm" /><line x1="26.7839228379cm" x2="26.7839228379cm" y1="4.68cm" y2="4.84cm" /><line x1="26.7839228379cm" x2="26.7839228379cm" y1="4.84cm" y2="5.0cm" /><line x1="36.7839228379cm" x2="37.2264787976cm" y1="5.0cm" y2="4.84cm" /><line x1="37.2264787976cm" x2="37.6858360556cm" y1="4.84cm" y2="4.68cm" /><line x1="37.6858360556cm" x2="38.1622623633cm" y1="4.68cm" y2="4.52cm" /><line x1="38.1622623633cm" x2="38.6559791599cm" y1="4.52cm" y2="4.36cm" /><line x1="38.6559791599cm" x2="39.167154641cm" y1="4.36cm" y2="4.2cm" /><line x1="39.167154641cm" x2="39.6958965317cm" y1="4.2cm" y2="4.04cm" /><line x1="39.6958965317cm" x2="40.2422446586cm" y1="4.04cm" y2="3.88cm" /><line x1="40.2422446586cm" x2="40.8061634403cm" y1="3.88cm" y2="3.72cm" /><line x1="40.8061634403cm" x2="41.3875344413cm" y1="3.72cm" y2="3.56cm" /><line x1="41.3875344413cm" x2="41.986149162cm" y1="3.56cm" y2="3.4cm" /><line x1="41.986149162cm" x2="42.601702263cm" y1="3.4cm" y2="3.24cm" /><line x1="42.601702263cm" x2="43.2337854415cm" y1="3.24cm" y2="3.08cm" /><line x1="43.2337854415cm" x2="43.8818821992cm" y1="3.08cm" y2="2.92cm" /><line x1="43.8818821992cm" x2="44.5453637487cm" y1="2.92cm" y2="2.76cm" /><line x1="44.5453637487cm" x2="45.2234863056cm" y1="2.76cm" y2="2.6cm" /><line x1="45.2234863056cm" x2="45.9153900069cm" y1="2.6cm" y2="2.44cm" /><line x1="45.9153900069cm" x2="46.6200996697cm" y1="2.44cm" y2="2.28cm" /><line x1="46.6200996697cm" x2="47.3365275682cm" y1="2.28cm" y2="2.12cm" /><line x1="47.3365275682cm" x2="48.0634783555cm" y1="2.12cm" y2="1.96cm" /><line x1="48.0634783555cm" x2="48.79965619cm" y1="1.96cm" y2="1.8cm" /><line x1="48.79965619cm" x2="49.5436740461cm" y1="1.8cm" y2="1.64cm" /><line x1="49.5436740461cm" x2="50.2940650852cm" y1="1.64cm" y2="1.48cm" /><line x1="50.2940650852cm" x2="51.0492957652cm" y1="1.48cm" y2="1.32cm" /><line x1="51.0492957652cm" x2="51.8077793584cm" y1="1.32cm" y2="1.16cm" /><line x1="51.8077793584cm" x2="52.5678456758cm" y1="1.16cm" y2="1.0cm" /><line x1="16.7839228379cm" x2="16.3413668782cm" y1="5.0cm" y2="4.84cm" /><line x1="16.3413668782cm" x2="15.8820096202cm" y1="4.84cm" y2="4.68cm" /><line x1="15.8820096202cm" x2="15.4055833125cm" y1="4.68cm" y2="4.52cm" /><line x1="15.4055833125cm" x2="14.9118665159cm" y1="4.52cm" y2="4.36cm" /><line x1="14.9118665159cm" x2="14.4006910348cm" y1="4.36cm" y2="4.2cm" /><line x1="14.4006910348cm" x2="13.8719491441cm" y1="4.2cm" y2="4.04cm" /><line x1="13.8719491441cm" x2="13.3256010172cm" y1="4.04cm" y2="3.88cm" /><line x1="13.3256010172cm" x2="12.7616822355cm" y1="3.88cm" y2="3.72cm" /><line x1="12.7616822355cm" x2="12.1803112345cm" y1="3.72cm" y2="3.56cm" /><line x1="12.1803112345cm" x2="11.5816965137cm" y1="3.56cm" y2="3.4cm" /><line x1="11.5816965137cm" x2="10.9661434128cm" y1="3.4cm" y2="3.24cm" /><line x1="10.9661434128cm" x2="10.3340602343cm" y1="3.24cm" y2="3.08cm" /><line x1="10.3340602343cm" x2="9.68596347655cm" y1="3.08cm" y2="2.92cm" /><line x1="9.68596347655cm" x2="9.02248192705cm" y1="2.92cm" y2="2.76cm" /><line x1="9.02248192705cm" x2="8.34435937019cm" y1="2.76cm" y2="2.6cm" /><line x1="8.34435937019cm" x2="7.6524556689cm" y1="2.6cm" y2="2.44cm" /><line x1="7.6524556689cm" x2="6.94774600609cm" y1="2.44cm" y2="2.28cm" /><line x1="6.94774600609cm" x2="6.23131810754cm" y1="2.28cm" y2="2.12cm" /><line x1="6.23131810754cm" x2="5.50436732025cm" y1="2.12cm" y2="1.96cm" /><line x1="5.50436732025cm" x2="4.76818948581cm" y1="1.96cm" y2="1.8cm" /><line x1="4.76818948581cm" x2="4.02417162966cm" y1="1.8cm" y2="1.64cm" /><line x1="4.02417162966cm" x2="3.2737805906cm" y1="1.64cm" y2="1.48cm" /><line x1="3.2737805906cm" x2="2.51854991055cm" y1="1.48cm" y2="1.32cm" /><line x1="2.51854991055cm" x2="1.7600663174cm" y1="1.32cm" y2="1.16cm" /><line x1="1.7600663174cm" x2="1.0cm" y1="1.16cm" y2="1.0cm" /><line x1="31.7839228379cm" x2="32.0052008178cm" y1="5.0cm" y2="4.84cm" /><line x1="32.0052008178cm" x2="32.2348794468cm" y1="4.84cm" y2="4.68cm" /><line x1="32.2348794468cm" x2="32.4730926006cm" y1="4.68cm" y2="4.52cm" /><line x1="32.4730926006cm" x2="32.7199509989cm" y1="4.52cm" y2="4.36cm" /><line x1="32.7199509989cm" x2="32.9755387394cm" y1="4.36cm" y2="4.2cm" /><line x1="32.9755387394cm" x2="33.2399096848cm" y1="4.2cm" y2="4.04cm" /><line x1="33.2399096848cm" x2="33.5130837483cm" y1="4.04cm" y2="3.88cm" /><line x1="33.5130837483cm" x2="33.7950431391cm" y1="3.88cm" y2="3.72cm" /><line x1="33.7950431391cm" x2="34.0857286396cm" y1="3.72cm" y2="3.56cm" /><line x1="34.0857286396cm" x2="34.385036cm" y1="3.56cm" y2="3.4cm" /><line x1="34.385036cm" x2="34.6928125504cm" y1="3.4cm" y2="3.24cm" /><line x1="34.6928125504cm" x2="35.0088541397cm" y1="3.24cm" y2="3.08cm" /><line x1="35.0088541397cm" x2="35.3329025186cm" y1="3.08cm" y2="2.92cm" /><line x1="35.3329025186cm" x2="35.6646432933cm" y1="2.92cm" y2="2.76cm" /><line x1="35.6646432933cm" x2="36.0037045717cm" y1="2.76cm" y2="2.6cm" /><line x1="36.0037045717cm" x2="36.3496564224cm" y1="2.6cm" y2="2.44cm" /><line x1="36.3496564224cm" x2="36.7020112538cm" y1="2.44cm" y2="2.28cm" /><line x1="36.7020112538cm" x2="37.0602252031cm" y1="2.28cm" y2="2.12cm" /><line x1="37.0602252031cm" x2="37.4237005967cm" y1="2.12cm" y2="1.96cm" /><line x1="37.4237005967cm" x2="37.7917895139cm" y1="1.96cm" y2="1.8cm" /><line x1="37.7917895139cm" x2="38.163798442cm" y1="1.8cm" y2="1.64cm" /><line x1="38.163798442cm" x2="38.5389939615cm" y1="1.64cm" y2="1.48cm" /><line x1="38.5389939615cm" x2="38.9166093016cm" y1="1.48cm" y2="1.32cm" /><line x1="38.9166093016cm" x2="39.2958510981cm" y1="1.32cm" y2="1.16cm" /><line x1="39.2958510981cm" x2="39.6758842568cm" y1="1.16cm" y2="1.0cm" /><line x1="21.7839228379cm" x2="21.562644858cm" y1="5.0cm" y2="4.84cm" /><line x1="21.562644858cm" x2="21.332966229cm" y1="4.84cm" y2="4.68cm" /><line x1="21.332966229cm" x2="21.0947530752cm" y1="4.68cm" y2="4.52cm" /><line x1="21.0947530752cm" x2="20.8478946769cm" y1="4.52cm" y2="4.36cm" /><line x1="20.8478946769cm" x2="20.5923069363cm" y1="4.36cm" y2="4.2cm" /><line x1="20.5923069363cm" x2="20.327935991cm" y1="4.2cm" y2="4.04cm" /><line x1="20.327935991cm" x2="20.0547619275cm" y1="4.04cm" y2="3.88cm" /><line x1="20.0547619275cm" x2="19.7728025367cm" y1="3.88cm" y2="3.72cm" /><line x1="19.7728025367cm" x2="19.4821170362cm" y1="3.72cm" y2="3.56cm" /><line x1="19.4821170362cm" x2="19.1828096758cm" y1="3.56cm" y2="3.4cm" /><line x1="19.1828096758cm" x2="18.8750331253cm" y1="3.4cm" y2="3.24cm" /><line x1="18.8750331253cm" x2="18.5589915361cm" y1="3.24cm" y2="3.08cm" /><line x1="18.5589915361cm" x2="18.2349431572cm" y1="3.08cm" y2="2.92cm" /><line x1="18.2349431572cm" x2="17.9032023825cm" y1="2.92cm" y2="2.76cm" /><line x1="17.9032023825cm" x2="17.564141104cm" y1="2.76cm" y2="2.6cm" /><line x1="17.564141104cm" x2="17.2181892534cm" y1="2.6cm" y2="2.44cm" /><line x1="17.2181892534cm" x2="16.865834422cm" y1="2.44cm" y2="2.28cm" /><line x1="16.865834422cm" x2="16.5076204727cm" y1="2.28cm" y2="2.12cm" /><line x1="16.5076204727cm" x2="16.1441450791cm" y1="2.12cm" y2="1.96cm" /><line x1="16.1441450791cm" x2="15.7760561618cm" y1="1.96cm" y2="1.8cm" /><line x1="15.7760561618cm" x2="15.4040472338cm" y1="1.8cm" y2="1.64cm" /><line x1="15.4040472338cm" x2="15.0288517142cm" y1="1.64cm" y2="1.48cm" /><line x1="15.0288517142cm" x2="14.6512363742cm" y1="1.48cm" y2="1.32cm" /><line x1="14.6512363742cm" x2="14.2719945776cm" y1="1.32cm" y2="1.16cm" /><line x1="14.2719945776cm" x2="13.8919614189cm" y1="1.16cm" y2="1.0cm" /><line x1="29.2839228379cm" x2="29.3945618278cm" y1="5.0cm" y2="4.84cm" /><line x1="29.3945618278cm" x2="29.5094011423cm" y1="4.84cm" y2="4.68cm" /><line x1="29.5094011423cm" x2="29.6285077192cm" y1="4.68cm" y2="4.52cm" /><line x1="29.6285077192cm" x2="29.7519369184cm" y1="4.52cm" y2="4.36cm" /><line x1="29.7519369184cm" x2="29.8797307887cm" y1="4.36cm" y2="4.2cm" /><line x1="29.8797307887cm" x2="30.0119162613cm" y1="4.2cm" y2="4.04cm" /><line x1="30.0119162613cm" x2="30.1485032931cm" y1="4.04cm" y2="3.88cm" /><line x1="30.1485032931cm" x2="30.2894829885cm" y1="3.88cm" y2="3.72cm" /><line x1="30.2894829885cm" x2="30.4348257387cm" y1="3.72cm" y2="3.56cm" /><line x1="30.4348257387cm" x2="30.5844794189cm" y1="3.56cm" y2="3.4cm" /><line x1="30.5844794189cm" x2="30.7383676942cm" y1="3.4cm" y2="3.24cm" /><line x1="30.7383676942cm" x2="30.8963884888cm" y1="3.24cm" y2="3.08cm" /><line x1="30.8963884888cm" x2="31.0584126782cm" y1="3.08cm" y2="2.92cm" /><line x1="31.0584126782cm" x2="31.2242830656cm" y1="2.92cm" y2="2.76cm" /><line x1="31.2242830656cm" x2="31.3938137048cm" y1="2.76cm" y2="2.6cm" /><line x1="31.3938137048cm" x2="31.5667896301cm" y1="2.6cm" y2="2.44cm" /><line x1="31.5667896301cm" x2="31.7429670458cm" y1="2.44cm" y2="2.28cm" /><line x1="31.7429670458cm" x2="31.9220740205cm" y1="2.28cm" y2="2.12cm" /><line x1="31.9220740205cm" x2="32.1038117173cm" y1="2.12cm" y2="1.96cm" /><line x1="32.1038117173cm" x2="32.2878561759cm" y1="1.96cm" y2="1.8cm" /><line x1="32.2878561759cm" x2="32.47386064cm" y1="1.8cm" y2="1.64cm" /><line x1="32.47386064cm" x2="32.6614583997cm" y1="1.64cm" y2="1.48cm" /><line x1="32.6614583997cm" x2="32.8502660697cm" y1="1.48cm" y2="1.32cm" /><line x1="32.8502660697cm" x2="33.039886968cm" y1="1.32cm" y2="1.16cm" /><line x1="33.039886968cm" x2="33.2299035474cm" y1="1.16cm" y2="1.0cm" /><line x1="24.2839228379cm" x2="24.173283848cm" y1="5.0cm" y2="4.84cm" /><line x1="24.173283848cm" x2="24.0584445335cm" y1="4.84cm" y2="4.68cm" /><line x1="24.0584445335cm" x2="23.9393379565cm" y1="4.68cm" y2="4.52cm" /><line x1="23.9393379565cm" x2="23.8159087574cm" y1="4.52cm" y2="4.36cm" /><line x1="23.8159087574cm" x2="23.6881148871cm" y1="4.36cm" y2="4.2cm" /><line x1="23.6881148871cm" x2="23.5559294144cm" y1="4.2cm" y2="4.04cm" /><line x1="23.5559294144cm" x2="23.4193423827cm" y1="4.04cm" y2="3.88cm" /><line x1="23.4193423827cm" x2="23.2783626873cm" y1="3.88cm" y2="3.72cm" /><line x1="23.2783626873cm" x2="23.133019937cm" y1="3.72cm" y2="3.56cm" /><line x1="23.133019937cm" x2="22.9833662569cm" y1="3.56cm" y2="3.4cm" /><line x1="22.9833662569cm" x2="22.8294779816cm" y1="3.4cm" y2="3.24cm" /><line x1="22.8294779816cm" x2="22.671457187cm" y1="3.24cm" y2="3.08cm" /><line x1="22.671457187cm" x2="22.5094329976cm" y1="3.08cm" y2="2.92cm" /><line x1="22.5094329976cm" x2="22.3435626102cm" y1="2.92cm" y2="2.76cm" /><line x1="22.3435626102cm" x2="22.174031971cm" y1="2.76cm" y2="2.6cm" /><line x1="22.174031971cm" x2="22.0010560456cm" y1="2.6cm" y2="2.44cm" /><line x1="22.0010560456cm" x2="21.8248786299cm" y1="2.44cm" y2="2.28cm" /><line x1="21.8248786299cm" x2="21.6457716553cm" y1="2.28cm" y2="2.12cm" /><line x1="21.6457716553cm" x2="21.4640339585cm" y1="2.12cm" y2="1.96cm" /><line x1="21.4640339585cm" x2="21.2799894999cm" y1="1.96cm" y2="1.8cm" /><line x1="21.2799894999cm" x2="21.0939850358cm" y1="1.8cm" y2="1.64cm" /><line x1="21.0939850358cm" x2="20.9063872761cm" y1="1.64cm" y2="1.48cm" /><line x1="20.9063872761cm" x2="20.7175796061cm" y1="1.48cm" y2="1.32cm" /><line x1="20.7175796061cm" x2="20.5279587078cm" y1="1.32cm" y2="1.16cm" /><line x1="20.5279587078cm" x2="20.3379421284cm" y1="1.16cm" y2="1.0cm" /><line x1="28.0339228379cm" x2="28.0892423329cm" y1="5.0cm" y2="4.84cm" /><line x1="28.0892423329cm" x2="28.1466619901cm" y1="4.84cm" y2="4.68cm" /><line x1="28.1466619901cm" x2="28.2062152786cm" y1="4.68cm" y2="4.52cm" /><line x1="28.2062152786cm" x2="28.2679298781cm" y1="4.52cm" y2="4.36cm" /><line x1="28.2679298781cm" x2="28.3318268133cm" y1="4.36cm" y2="4.2cm" /><line x1="28.3318268133cm" x2="28.3979195496cm" y1="4.2cm" y2="4.04cm" /><line x1="28.3979195496cm" x2="28.4662130655cm" y1="4.04cm" y2="3.88cm" /><line x1="28.4662130655cm" x2="28.5367029132cm" y1="3.88cm" y2="3.72cm" /><line x1="28.5367029132cm" x2="28.6093742883cm" y1="3.72cm" y2="3.56cm" /><line x1="28.6093742883cm" x2="28.6842011284cm" y1="3.56cm" y2="3.4cm" /><line x1="28.6842011284cm" x2="28.761145266cm" y1="3.4cm" y2="3.24cm" /><line x1="28.761145266cm" x2="28.8401556633cm" y1="3.24cm" y2="3.08cm" /><line x1="28.8401556633cm" x2="28.9211677581cm" y1="3.08cm" y2="2.92cm" /><line x1="28.9211677581cm" x2="29.0041029517cm" y1="2.92cm" y2="2.76cm" /><line x1="29.0041029517cm" x2="29.0888682714cm" y1="2.76cm" y2="2.6cm" /><line x1="29.0888682714cm" x2="29.175356234cm" y1="2.6cm" y2="2.44cm" /><line x1="29.175356234cm" x2="29.2634449419cm" y1="2.44cm" y2="2.28cm" /><line x1="29.2634449419cm" x2="29.3529984292cm" y1="2.28cm" y2="2.12cm" /><line x1="29.3529984292cm" x2="29.4438672776cm" y1="2.12cm" y2="1.96cm" /><line x1="29.4438672776cm" x2="29.5358895069cm" y1="1.96cm" y2="1.8cm" /><line x1="29.5358895069cm" x2="29.6288917389cm" y1="1.8cm" y2="1.64cm" /><line x1="29.6288917389cm" x2="29.7226906188cm" y1="1.64cm" y2="1.48cm" /><line x1="29.7226906188cm" x2="29.8170944538cm" y1="1.48cm" y2="1.32cm" /><line x1="29.8170944538cm" x2="29.911904903cm" y1="1.32cm" y2="1.16cm" /><line x1="29.911904903cm" x2="30.0069131926cm" y1="1.16cm" y2="1.0cm" /><line x1="25.5339228379cm" x2="25.4786033429cm" y1="5.0cm" y2="4.84cm" /><line x1="25.4786033429cm" x2="25.4211836857cm" y1="4.84cm" y2="4.68cm" /><line x1="25.4211836857cm" x2="25.3616303972cm" y1="4.68cm" y2="4.52cm" /><line x1="25.3616303972cm" x2="25.2999157976cm" y1="4.52cm" y2="4.36cm" /><line x1="25.2999157976cm" x2="25.2360188625cm" y1="4.36cm" y2="4.2cm" /><line x1="25.2360188625cm" x2="25.1699261262cm" y1="4.2cm" y2="4.04cm" /><line x1="25.1699261262cm" x2="25.1016326103cm" y1="4.04cm" y2="3.88cm" /><line x1="25.1016326103cm" x2="25.0311427626cm" y1="3.88cm" y2="3.72cm" /><line x1="25.0311427626cm" x2="24.9584713875cm" y1="3.72cm" y2="3.56cm" /><line x1="24.9584713875cm" x2="24.8836445474cm" y1="3.56cm" y2="3.4cm" /><line x1="24.8836445474cm" x2="24.8067004098cm" y1="3.4cm" y2="3.24cm" /><line x1="24.8067004098cm" x2="24.7276900124cm" y1="3.24cm" y2="3.08cm" /><line x1="24.7276900124cm" x2="24.6466779177cm" y1="3.08cm" y2="2.92cm" /><line x1="24.6466779177cm" x2="24.563742724cm" y1="2.92cm" y2="2.76cm" /><line x1="24.563742724cm" x2="24.4789774044cm" y1="2.76cm" y2="2.6cm" /><line x1="24.4789774044cm" x2="24.3924894418cm" y1="2.6cm" y2="2.44cm" /><line x1="24.3924894418cm" x2="24.3044007339cm" y1="2.44cm" y2="2.28cm" /><line x1="24.3044007339cm" x2="24.2148472466cm" y1="2.28cm" y2="2.12cm" /><line x1="24.2148472466cm" x2="24.1239783982cm" y1="2.12cm" y2="1.96cm" /><line x1="24.1239783982cm" x2="24.0319561689cm" y1="1.96cm" y2="1.8cm" /><line x1="24.0319561689cm" x2="23.9389539369cm" y1="1.8cm" y2="1.64cm" /><line x1="23.9389539369cm" x2="23.845155057cm" y1="1.64cm" y2="1.48cm" /><line x1="23.845155057cm" x2="23.750751222cm" y1="1.48cm" y2="1.32cm" /><line x1="23.750751222cm" x2="23.6559407728cm" y1="1.32cm" y2="1.16cm" /><line x1="23.6559407728cm" x2="23.5609324832cm" y1="1.16cm" y2="1.0cm" /></g><text x="36.7839228379cm" y="5.3cm">100km</text><text x="16.7839228379cm" y="5.3cm">100km</text><text x="31.7839228379cm" y="5.3cm">50km</text><text x="21.7839228379cm" y="5.3cm">50km</text><text x="29.2839228379cm" y="5.3cm">25km</text><text x="24.2839228379cm" y="5.3cm">25km</text><g id="horizontal_tick" stroke="black"><line x1="26.7839228379cm" x2="52.5678456758cm" y1="5.0cm" y2="5.0cm" /><line x1="1.0cm" x2="26.7839228379cm" y1="5.0cm" y2="5.0cm" /><line x1="26.7839228379cm" x2="52.5678456758cm" y1="4.6383363472cm" y2="4.6383363472cm" /><line x1="1.0cm" x2="26.7839228379cm" y1="4.6383363472cm" y2="4.6383363472cm" /><line x1="26.7839228379cm" x2="52.5678456758cm" y1="4.27667269439cm" y2="4.27667269439cm" /><line x1="1.0cm" x2="26.7839228379cm" y1="4.27667269439cm" y2="4.27667269439cm" /><line x1="26.7839228379cm" x2="52.5678456758cm" y1="3.91500904159cm" y2="3.91500904159cm" /><line x1="1.0cm" x2="26.7839228379cm" y1="3.91500904159cm" y2="3.91500904159cm" /><line x1="26.7839228379cm" x2="52.5678456758cm" y1="3.55334538879cm" y2="3.55334538879cm" /><line x1="1.0cm" x2="26.7839228379cm" y1="3.55334538879cm" y2="3.55334538879cm" /><line x1="26.7839228379cm" x2="52.5678456758cm" y1="3.19168173599cm" y2="3.19168173599cm" /><line x1="1.0cm" x2="26.7839228379cm" y1="3.19168173599cm" y2="3.19168173599cm" /><line x1="26.7839228379cm" x2="52.5678456758cm" y1="2.83001808318cm" y2="2.83001808318cm" /><line x1="1.0cm" x2="26.7839228379cm" y1="2.83001808318cm" y2="2.83001808318cm" /><line x1="26.7839228379cm" x2="52.5678456758cm" y1="2.46835443038cm" y2="2.46835443038cm" /><line x1="1.0cm" x2="26.7839228379cm" y1="2.46835443038cm" y2="2.46835443038cm" /><line x1="26.7839228379cm" x2="52.5678456758cm" y1="2.10669077758cm" y2="2.10669077758cm" /><line x1="1.0cm" x2="26.7839228379cm" y1="2.10669077758cm" y2="2.10669077758cm" /><line x1="26.7839228379cm" x2="52.5678456758cm" y1="1.74502712477cm" y2="1.74502712477cm" /><line x1="1.0cm" x2="26.7839228379cm" y1="1.74502712477cm" y2="1.74502712477cm" /><line x1="26.7839228379cm" x2="52.5678456758cm" y1="1.38336347197cm" y2="1.38336347197cm" /><line x1="1.0cm" x2="26.7839228379cm" y1="1.38336347197cm" y2="1.38336347197cm" /><line x1="26.7839228379cm" x2="52.5678456758cm" y1="1.0cm" y2="1.0cm" /><line x1="1.0cm" x2="26.7839228379cm" y1="1.0cm" y2="1.0cm" /></g></svg>